<svg width="780" height="746" viewBox="0 0 780 746" fill="none" xmlns="http://www.w3.org/2000/svg">
<g id="Group">
<g id="Layer 3">
<g id="Group_2">
<g id="Vector" style="mix-blend-mode:multiply">
<path d="M367.9 745.2C528.062 745.2 657.9 738.439 657.9 730.1C657.9 721.76 528.062 715 367.9 715C207.737 715 77.8999 721.76 77.8999 730.1C77.8999 738.439 207.737 745.2 367.9 745.2Z" fill="#0000004D"/>
</g>
<g id="Group_3">
<path id="Vector_2" d="M269.2 490.6C276.6 512.9 289 535.1 282.4 559.8C273.6 590.5 270.6 622.4 279 652C297.3 645.4 315.5 636.2 333.3 623.9C328.6 564.5 322.5 504.8 305.5 447.7C293.1 461.7 284.1 478.2 269.2 490.6Z" fill="#0958D6"/>
<path id="Vector_3" d="M292.6 293.8L225.7 305.3C225.7 305.3 225 313.8 222.7 327.8C230.3 330 237.7 332.7 244.6 336.5C269.3 350.5 287.5 371.9 305.6 392.6H303.9C308 399.2 317.1 407.4 315.4 411.6C305.5 435.5 282.4 451.2 267.6 474.3C245.3 508.1 229.7 542.7 214.8 579.8C209.9 590.5 202.4 600.4 198.3 612C195 621.1 191.7 629.3 187.6 637.6C185.1 642.5 182.7 648.3 181 653.3C179.1 657.7 177.4 662.1 176 666.5C209 668.4 244.1 665 279.1 652.3C270.7 622.7 273.6 590.8 282.5 560.1C289.1 535.4 276.7 513.1 269.3 490.9C284.1 478.5 293.2 462.1 305.6 448C322.7 505.1 328.8 564.8 333.4 624.2C343.4 617.3 353.3 609.4 363 600.5C519.6 456 292.7 294 292.7 294L292.6 293.8Z" fill="#1A6AFF"/>
<path id="Vector_4" d="M187.6 436.4C174.7 461.8 157.6 487 134.8 507.9C54 582.1 0.699951 608.5 0.699951 608.5C0.699951 608.5 60.2 647.9 139.6 661.9C147.2 585.9 183.1 513.7 223 449.4C211.3 445.3 199.3 441.3 187.6 436.4Z" fill="#1A6AFF"/>
<path id="Vector_5" d="M233.8 420.5C240.4 419.7 254.4 411.4 253.6 407.3C250 385.8 235.8 366.8 217.5 353C213.6 369.7 207.8 389.4 199.6 409.9C210.8 417.2 223.2 422.3 233.8 420.5Z" fill="#1A6AFF"/>
<path id="Vector_6" d="M303.8 392.5H305.5C287.4 371.9 269.2 350.5 244.5 336.4C237.6 332.6 230.2 330 222.6 327.7C221.4 334.8 219.7 343.4 217.5 352.9C235.8 366.7 250 385.7 253.6 407.2C254.4 411.3 240.4 419.6 233.8 420.4C223.2 422.3 210.8 417.1 199.6 409.8C196.1 418.5 192.1 427.4 187.7 436.2C199.4 441.1 211.4 445.1 223.1 449.2C183.2 513.5 147.3 585.7 139.7 661.7C151.4 663.8 163.6 665.3 176 666C177.5 661.6 179.1 657.2 181 652.8C182.7 647.9 185.1 642.1 187.6 637.1C191.7 628.9 195 620.6 198.3 611.5C202.4 600 209.8 590.1 214.8 579.3C229.6 542.2 245.3 507.6 267.6 473.8C282.4 450.7 305.5 435.1 315.4 411.1C317.1 407 308 398.7 303.9 392.1L303.8 392.5Z" fill="#0958D6"/>
<path id="Vector_7" d="M264.8 288.4C265 294.2 265.5 300.9 266.4 305.1C268.3 313.8 281.6 314.9 281.6 305.1C281.6 295.3 278.9 289.3 277 282.9C273.1 285.1 269.1 286.9 264.8 288.4Z" fill="#FF757B"/>
<path id="Vector_8" d="M274.8 276.6L264.5 277C264.5 277 264.5 282.2 264.8 288.4C269 286.9 273.1 285.2 277 282.9C275.8 279.2 274.9 276.6 274.9 276.6H274.8Z" fill="#F4515E"/>
<path id="Vector_9" d="M272.9 268C269 262.8 258 265.9 250.6 261.8C249.4 267.9 247.7 278.1 249.8 281.3C251.2 283.4 256.9 284.1 263.2 283.6C270.4 279.7 276.7 273.5 272.9 268.1V268Z" fill="#FF757B"/>
<path id="Vector_10" d="M289.2 252.4C283.9 246 273.3 244.4 263.4 246.3C253.6 248.2 251.7 256.9 251.7 256.9C251.7 256.9 251.2 258.9 250.6 261.7C258 265.8 269 262.7 272.9 267.9C276.7 273.3 270.4 279.5 263.2 283.4C270.3 282.9 278.2 280.9 282 278.1C289.2 272.8 294.5 258.8 289.2 252.3V252.4Z" fill="#F4515E"/>
<path id="Vector_11" d="M276.3 260.4C276.3 260.4 236.1 271.8 236.1 241.8C236.1 211.8 305 205 300.5 254.7C300.5 254.7 332.3 249.4 326.6 280.8C326.6 280.8 386.1 272.1 377.4 332.3C368.7 392.5 280.5 368.7 275.6 332.3C270.7 295.9 278.9 264.9 278.9 264.9C278.9 264.9 287.2 258.1 282.3 256.6C277.4 255.1 276.2 260.4 276.2 260.4H276.3Z" fill="#142C39"/>
<path id="Vector_12" d="M310.5 643.9C315.9 662.7 323.7 691.2 335.1 726.5C335.1 726.5 337.8 686.7 339.6 637.9C330.5 642 320.5 644.1 310.5 643.9Z" fill="#FF757B"/>
<path id="Vector_13" d="M173.2 633C167.4 660.6 161.9 691.5 157.1 726.4C157.1 726.4 173.2 690.6 195.9 645.6C187.1 644.1 179 640.1 173.2 632.9V633Z" fill="#FF757B"/>
<path id="Vector_14" d="M338.8 422.5C335 417.9 332 411.9 335.8 405.1C342.4 393.7 348.8 382.5 354.5 371.1C351.9 370.8 349.2 370.9 346.5 371.6C340.3 386.5 332.6 402.2 325.2 408.2C309.7 420.7 331.3 434.7 339.2 432.4C342.7 431.4 345.7 428.5 347 424.8C344.1 425.2 341.3 424.5 338.8 422.5Z" fill="#F4515E"/>
<path id="Vector_15" d="M367.6 377.4C364 373.9 359.4 371.7 354.4 371.1C348.7 382.5 342.3 393.8 335.7 405.1C331.9 411.9 334.9 418 338.7 422.5C341.2 424.5 344 425.2 346.9 424.8C348.6 420.2 347.6 414.4 341.7 409.7C341.7 409.7 355.4 396.1 367.5 377.4H367.6Z" fill="#FF757B"/>
<path id="Vector_16" d="M281.6 475.6C287.1 490.1 293 506.8 297.4 522.5C306.1 496.7 310.1 469.5 310.8 442.2C303.6 455.1 293.2 465.9 281.6 475.5V475.6Z" fill="#142C39"/>
<path id="Vector_17" d="M331.6 419.1C323.6 387.2 266.1 437.3 266.1 437.3C266.1 437.3 273.4 453.8 281.7 475.5C293.2 465.9 303.7 455.1 310.9 442.2C310.2 469.4 306.3 496.7 297.5 522.5C302.6 540.6 305.7 557.3 303.8 567.3C299.7 590 297.2 596.9 310.6 643.8C320.6 643.9 330.7 641.9 339.7 637.8C342.4 565.4 343.4 466.1 331.7 419.1H331.6Z" fill="#FDBC2A"/>
<path id="Vector_18" d="M278.9 415.7C278.9 415.7 215.5 433.6 173.1 633C178.8 640.2 186.9 644.2 195.8 645.7C223.5 590.9 261 522.3 291.3 488.2C346.4 426.1 278.9 415.7 278.9 415.7Z" fill="#FDBC2A"/>
<path id="Vector_19" d="M280.4 318.7C283.8 310 285.3 301 285.8 291.9C280.7 291.7 275.4 291.9 270 292.2C270 292.2 263.9 292.8 254.3 295.3C260.4 304.9 272.7 310.5 280.4 318.7Z" fill="#FF757B"/>
<path id="Vector_20" d="M228.9 332.4C202.4 335.4 182.7 360.4 169 383.9C177 389.9 185.6 394.6 194.6 398.3C195.7 397.4 196.9 396.5 198.1 395.7C189.3 390.5 182 384.9 179.7 380.1C179.7 380.1 200.6 352.1 234.6 333.9C232.4 332.7 230.4 332.1 229 332.3L228.9 332.4Z" fill="#42B5E8"/>
<path id="Vector_21" d="M285.8 292C285.3 301.1 283.8 310.1 280.4 318.8C272.8 310.6 260.4 305 254.3 295.4C227.7 302.2 173.8 322.8 146.2 382.1C146.2 382.1 158.5 399.7 183.8 413C186.1 407.4 189.8 402.3 194.5 398.4C185.5 394.7 176.9 390 168.9 384C182.5 360.5 202.2 335.5 228.8 332.5C230.2 332.3 232.2 332.9 234.4 334.1C250 325.8 268.3 319.5 288.7 319.1C290.9 313.1 293.2 307.3 294.7 306.8C321.2 303.8 346.2 319.7 368.9 333.3C365.4 346.6 360.3 359.1 354.2 371.2C359.1 371.8 363.8 374 367.4 377.5C376.8 362.9 385.2 345.3 385.6 328.4C385.6 328.4 344.9 294.1 285.7 292.1L285.8 292Z" fill="#75C7FE"/>
<path id="Vector_22" d="M294.8 306.6C293.2 307.1 291 312.9 288.8 318.9C293.4 318.8 298 318.9 302.8 319.5C316.8 321 358.1 339.6 358.1 339.6C358.1 339.6 353.3 355.1 346.5 371.6C349.2 370.9 351.8 370.8 354.5 371.1C360.5 358.9 365.6 346.4 369.2 333.2C346.5 319.6 321.5 303.7 295 306.7L294.8 306.6Z" fill="#42B5E8"/>
<path id="Vector_23" d="M198.1 395.7C196.9 396.5 195.7 397.3 194.6 398.3C201.6 401.2 208.8 403.5 216.2 405.4C210.2 402.5 203.8 399.2 198.1 395.7Z" fill="#F4515E"/>
<path id="Vector_24" d="M234.2 438.4C242.5 443.7 252.4 441.4 256.9 433.8C260.3 429.2 261.2 423.4 259.1 418.2C252.7 413.1 240.2 416 240.2 416C240.2 416 229 411.5 216.1 405.3C209.1 403.5 202.3 401.3 195.6 398.6C191.4 402.8 187.7 408.1 185.4 413.5C198.8 420.3 215.6 425.8 236 426.9C236 426.9 232.4 429.6 229.9 433.3C230.7 435.6 232.6 437.3 234.1 438.3L234.2 438.4Z" fill="#FF757B"/>
<path id="Vector_25" d="M259.2 418.3C261.2 423.5 260.4 429.3 257 433.9C252.4 441.5 242.6 443.7 234.3 438.5C232.8 437.5 231 435.8 230.1 433.5C228 436.6 226.7 440.3 229 443.8C233.9 451.4 257.4 453.3 262.3 431.7C263.9 424.8 262.3 420.8 259.2 418.4V418.3Z" fill="#F4515E"/>
<path id="Vector_26" d="M195.8 398.7C195.4 398.5 195 398.4 194.7 398.2C190.1 402.1 186.4 407.2 184 412.8C184.5 413.1 185 413.3 185.6 413.6C187.9 408.2 191.6 402.9 195.8 398.7Z" fill="#ED7E94"/>
<path id="Vector_27" d="M280.4 318.7C283.1 311.7 284.6 304.5 285.4 297.3C278.3 297.3 268.7 297.8 258.4 300.4C264.9 307.1 274.2 312.1 280.4 318.8V318.7Z" fill="#FF757B"/>
<path id="Vector_28" d="M292.6 350.6C286.5 360.4 272.1 365 260.8 362.7C254 361.2 250.2 354.4 247.2 347.5C244.9 339.9 233.6 331.6 229 332.3C225.3 332.7 221.7 333.6 218.2 334.8C228.8 341.4 250.7 356.7 265.2 379.1C264.6 377.1 263.9 375.2 263.1 373.2C275.2 371.7 289.6 364.1 292.7 350.5L292.6 350.6Z" fill="#42B5E8"/>
<path id="Vector_29" d="M329.3 318.7C322.5 309.2 307.2 320.3 307.2 320.3L297.9 298.3C297.9 298.3 293.1 297.4 285.4 297.3C284.7 304.6 283.1 311.7 280.4 318.7C274.2 312 264.9 307.1 258.4 300.3C242.6 304.3 225.1 312.9 211.8 331.2C211.8 331.2 214.2 332.4 218.1 334.9C221.6 333.7 225.1 332.8 228.9 332.4C233.5 331.6 244.8 340 247.1 347.6C250.1 354.4 253.9 361.2 260.7 362.8C272.1 365.1 286.5 360.5 292.5 350.7C289.5 364.3 275.1 371.9 262.9 373.4C263.7 375.4 264.4 377.3 265 379.3C271.9 390 277.2 402.2 278.8 415.9C278.8 415.9 286.7 424.2 300.2 426.3C312.6 424.2 323.9 419 328.1 409.1C334.9 390.9 331.9 366.7 319 349.2C317.5 346.9 309.2 347.7 303.8 347.7C315.7 346.6 325.2 339.8 330.3 330.2C331.4 326.2 331.5 322.1 329.2 318.9L329.3 318.7Z" fill="#75C7FE"/>
<path id="Vector_30" d="M303.9 347.5C309.2 347.5 317.5 346.7 319.1 349C332 366.4 335 390.7 328.2 408.9C324 418.8 312.7 424.1 300.3 426.1C308.7 427.4 319.4 426.3 331.6 419.1C331.6 419.1 336.2 370 322.1 345.2C322.1 345.2 328.2 337.8 330.4 330C325.3 339.6 315.8 346.4 303.9 347.5Z" fill="#42B5E8"/>
<path id="Vector_31" d="M273.2 303.5C273.2 303.5 254.2 296.8 225.6 305.3C236.6 297 249 290.5 264.8 288.4C264.8 288.4 265.4 298.5 273.2 303.5Z" fill="#1A6AFF"/>
<path id="Vector_32" d="M273.2 303.5L275.2 287.5C275.2 287.5 288.4 288.7 292.3 292.3C292.3 292.3 277 292.5 273.2 303.5Z" fill="#1A6AFF"/>
<path id="Vector_33" d="M285.6 302.3C285.6 305.7 280.9 308.5 275.1 308.5C269.3 308.5 264.6 305.7 264.6 302.3C264.6 298.9 269.3 296.1 275.1 296.1C280.9 296.1 285.6 298.9 285.6 302.3Z" fill="#142C39"/>
<path id="Vector_34" d="M334.5 722.9L328.9 731.1H371.1L334.5 722.9Z" fill="#142C39"/>
<path id="Vector_35" d="M158.6 722.7L120.9 728.8H163.3L158.6 722.7Z" fill="#142C39"/>
</g>
<g id="Group_4">
<path id="Vector_36" d="M550.7 410.4C550.7 383.2 543.3 347.7 568 329.6C569.9 328.1 573.1 329 576.5 331.1C572 317.6 568.7 305.9 566.3 296.5C529.3 326.8 505.2 378.2 524.3 423.6C534.2 419.5 550.7 415.4 550.7 410.4Z" fill="#0958D6"/>
<path id="Vector_37" d="M462.4 510.1C469.1 523.4 477.7 536.8 488.6 549.9C501 522.9 503.7 492.1 503.7 462.3C493.9 481.4 477.5 495.2 462.4 510V510.1Z" fill="#0958D6"/>
<path id="Vector_38" d="M599.9 389.4C589.9 368.1 582.3 348.2 576.5 331.1C573.1 329.1 569.9 328.1 568 329.6C543.3 347.7 550.7 383.2 550.7 410.4C550.7 437.6 534.2 419.5 524.3 423.6C505.2 378.3 529.3 326.8 566.3 296.5C562.5 281.5 561.1 272.7 561.1 272.7L512 253.5C512 253.5 398.8 382.7 462.4 510C477.5 495.2 493.9 481.4 503.7 462.3C503.7 492 500.9 522.9 488.6 549.9C489.8 551.3 490.9 552.7 492.2 554.1C508 572.3 524.6 586.9 541.5 598.5C540.8 542.4 537.5 486.6 523.5 431.9C549.9 419.4 577.3 407.9 599.9 389.5V389.4Z" fill="#1A6AFF"/>
<path id="Vector_39" d="M599.9 389.4C577.3 407.8 549.9 419.3 523.5 431.8C537.5 486.5 540.8 542.4 541.5 598.4C556.5 608.6 571.7 616.5 586.8 622.5C588.4 578.2 585.3 533.4 572.9 491.1C578.7 491.9 583.6 489.4 589.4 489.4C582.8 473.7 575.4 458.1 567.1 443.2C583.2 436.8 600.3 429.3 614.9 418.9C609.3 408.8 604.3 398.8 599.8 389.2L599.9 389.4Z" fill="#0958D6"/>
<path id="Vector_40" d="M680.9 511.5C653.2 481.4 631.7 449.5 614.9 419.1C600.3 429.4 583.2 436.9 567.1 443.4C575.3 458.2 582.8 473.9 589.4 489.6C583.6 489.6 578.7 492.1 572.9 491.3C585.2 533.6 588.4 578.4 586.8 622.7C685.3 661.5 779.9 619.1 779.9 619.1L681 511.7L680.9 511.5Z" fill="#1A6AFF"/>
<path id="Vector_41" d="M545.4 249.8C546.9 245.5 548 241.9 548 241.9C548 241.9 548.9 232.1 539.9 240.5C539.9 240.5 539.1 241.5 538 243.1C540.1 245.9 542.6 248.1 545.4 249.8Z" fill="#F4515E"/>
<path id="Vector_42" d="M549.1 229C554 225.9 560.9 225.8 567.4 223.9L566.6 218.8C551.3 203.1 538.2 216.6 538.2 216.6C538.2 216.6 526.5 229 539.8 240.5C543.7 243.9 547.5 245.9 550.8 247.2C546.8 240.7 544.9 232.1 549.1 229.1V229Z" fill="#F4515E"/>
<path id="Vector_43" d="M567.5 223.9C561 225.9 554.1 225.9 549.2 229C545 232 547 240.6 550.9 247.1C558.9 250 564.6 248.1 565.5 247.7C566.8 247.2 564.9 234.9 564.9 234.9H569.2L567.4 223.8L567.5 223.9Z" fill="#FF757B"/>
<path id="Vector_44" d="M551.6 225.6C551.6 225.6 582.3 220.9 595.7 208.4C595.7 208.4 539.3 195.8 529.1 211.7C518.9 227.6 539.8 240.5 539.8 240.5L546.2 229.6C546.2 229.6 541.8 227.3 544.1 224.1C546.4 220.9 551.6 225.6 551.6 225.6Z" fill="#142C39"/>
<path id="Vector_45" d="M441.5 89.1999C442.4 89.3999 442.6 95.6999 442.8 105.9C449 103.5 454.5 99.0998 458 93.5998C452.1 42.4998 452.6 0.299843 452.6 0.299843C452.6 0.299843 449.4 -1.10017 448.7 5.59983C447.9 12.2998 444.1 44.7998 444.1 44.7998C444.1 44.7998 424 57.3998 424.9 68.7998C425.8 80.1998 437.5 81.6999 437.5 81.6999C437.5 81.6999 437.4 88.4998 441.4 89.2998L441.5 89.1999Z" fill="#FF96A9"/>
<path id="Vector_46" d="M441.5 89.1999C442.4 89.3999 442.6 95.6999 442.8 105.9C449 103.5 454.5 99.0998 458 93.5998C452.1 42.4998 452.6 0.299843 452.6 0.299843C452.6 0.299843 449.4 -1.10017 448.7 5.59983C447.9 12.2998 444.1 44.7998 444.1 44.7998C444.1 44.7998 424 57.3998 424.9 68.7998C425.8 80.1998 437.5 81.6999 437.5 81.6999C437.5 81.6999 437.4 88.4998 441.4 89.2998L441.5 89.1999Z" fill="#FF757B"/>
<path id="Vector_47" d="M459 101.6C458.7 98.9 458.3 96.2 458 93.5C454.5 99 448.9 103.4 442.8 105.8C442.8 108.7 442.8 111.9 442.9 115.3C449.3 112 454.9 107.3 459 101.5V101.6Z" fill="#F2F0FF"/>
<path id="Vector_48" d="M554.8 422.4C556.6 421.8 558.6 421.1 560.6 420.3C557.4 413.8 552 407.8 545 407.2C544 407.7 543 408.1 542 408.6C548 411.4 552.2 416.5 554.7 422.4H554.8Z" fill="#F2F0FF"/>
<path id="Vector_49" d="M565.5 299.1C561.9 303.5 558.3 308.1 554.8 312.9C559.3 312.6 561.9 312 561.9 312C561.9 312 583 324.2 597.5 344.3C590.1 327.2 579.6 311.9 565.4 299.2L565.5 299.1Z" fill="#DD9A34"/>
<path id="Vector_50" d="M446.9 186.6C450.6 217.8 457.7 249.7 471.8 270.5C491 298.8 515.2 308.8 533.6 311.9C488.4 285.8 460 237.3 446.9 186.6Z" fill="#DD9A34"/>
<path id="Vector_51" d="M537.5 252.2C537.5 252.2 486 232.1 468.8 157.9C464.5 139.2 461.3 120 459 101.7C454.9 107.4 449.3 112.2 442.9 115.5C443.2 134 443.8 160.1 446.9 186.7C460.1 237.4 488.4 285.8 533.6 312C542.3 313.5 549.8 313.4 554.8 313C558.2 308.3 561.9 303.7 565.5 299.2C579.7 312 590.2 327.2 597.6 344.3C599.8 347.3 601.8 350.5 603.6 353.9C603.6 353.9 588.4 386.8 545 407.3C552 407.9 557.3 413.9 560.6 420.4C584 411.7 623 394 636.4 369.1C636.4 369.1 623.8 276.4 537.4 252.3L537.5 252.2Z" fill="#FDBC2A"/>
<path id="Vector_52" d="M447.8 468.5C447.8 445.5 452.2 423 458.2 400.9C457.6 398.1 457 395.3 456.3 392.5C454.2 394.9 453 396.5 453 396.5L437.8 458.3C440.9 461.8 444.6 464.9 447.8 468.5Z" fill="#DD9A34"/>
<path id="Vector_53" d="M475.6 525.8C472.6 483.9 467 442.1 458.2 401C452.2 423 447.8 445.6 447.8 468.6C444.6 465 440.9 461.9 437.8 458.4L370.7 726.5C370.7 726.5 438.1 620.6 475.6 525.9V525.8Z" fill="#FDBC2A"/>
<path id="Vector_54" d="M456.3 392.5C466.2 436.3 472.4 481 475.6 525.8C487.9 494.8 497.5 462.9 501.6 432.9C515.8 328.1 469.3 377.1 456.3 392.5Z" fill="#142C39"/>
<path id="Vector_55" d="M491.8 480.7C482.8 450.5 494.5 421.3 503.9 392.8C497.7 390.7 490.2 389 482 389.1C472 389.1 465.2 390.6 460.7 392.2C459.4 396.6 458.2 401.1 457 405.6C473.5 444.4 537.1 619.1 548.6 726.4C548.6 726.4 575.4 599.1 550.4 484.6C530.9 485.4 511.2 484.2 491.9 480.6L491.8 480.7Z" fill="#FDBC2A"/>
<path id="Vector_56" d="M491.8 480.7C511.1 484.3 530.8 485.4 550.3 484.7C544.3 457 535.2 428.9 522.1 401.9C522.1 401.9 515 396.6 503.9 392.8C494.6 421.3 482.8 450.5 491.8 480.7Z" fill="#DD9A34"/>
<path id="Vector_57" d="M453 396.6C453 396.6 454.4 399.8 456.9 405.7C458.1 401.2 459.3 396.8 460.6 392.3C454.9 394.4 453 396.6 453 396.6Z" fill="#DD9A34"/>
<path id="Vector_58" d="M447.1 389.1C447.1 389.1 461.2 417.9 512.3 407.4L545 254.5C545 254.5 534.1 250.9 530.3 248.5C526.8 246.3 457 322.1 447.1 389V389.1Z" fill="#F2F0FF"/>
<path id="Vector_59" d="M538 243.1C535.2 247.1 530.4 254.5 529.8 258.6C529 264.3 536.6 268.6 539.8 263.1C541.5 260.2 543.6 254.6 545.3 249.8C542.5 248.1 540 245.9 537.9 243.1H538Z" fill="#FF757B"/>
<path id="Vector_60" d="M532.1 249.5C532.1 249.5 453.2 349.9 444 459.2L424.9 436.6C424.9 436.6 451.1 302.7 474.8 266.4C498.5 230.1 515.2 237.8 515.2 237.8C515.2 237.8 527.5 247 532.1 249.4V249.5Z" fill="#FDBC2A"/>
<path id="Vector_61" d="M562 311.9L563.1 302.1C551.1 317.1 539.5 333.7 535.6 352.4C548 329.1 562.1 311.8 562.1 311.8L562 311.9Z" fill="#DD9A34"/>
<path id="Vector_62" d="M544.9 254.5C544.9 254.5 464.1 401.5 493.6 474.2C493.6 474.2 517.5 485.9 556.1 476.5C556.1 476.5 513.9 401.1 527.2 369.7C529.7 363.8 532.5 358 535.4 352.5C539.4 333.8 550.9 317.2 562.9 302.2L567 264.5C562.1 261.5 551.7 256 544.8 254.5H544.9Z" fill="#FDBC2A"/>
<path id="Vector_63" d="M542.1 408.6C533.8 412.3 524.6 415.5 514.3 418L495.6 458.9C495.6 458.9 498.6 460.3 500.9 457.1C503.2 453.9 508.9 441.9 508.9 441.9C508.9 441.9 518.8 452.5 524.8 451C530.9 449.5 534.1 433.8 534.1 433.8C534.1 433.8 536.2 435.1 539.4 433C542.6 430.9 542.4 426.4 542.4 426.4C542.4 426.4 547.3 425 554.9 422.3C552.3 416.4 548.2 411.3 542.2 408.5L542.1 408.6Z" fill="#FF757B"/>
<path id="Vector_64" d="M524.5 244.6L501.6 260.9L504.3 269.2H487.2L464.7 371.9C491 301.8 532.1 249.5 532.1 249.5C530.3 248.6 527.4 246.6 524.5 244.6Z" fill="#DD9A34"/>
<path id="Vector_65" d="M550.7 256.3C548.7 255.5 546.7 254.9 544.9 254.5C544.9 254.5 511.6 315.1 495.5 377.8L554.8 294L539.7 279L547.8 278.1L550.7 256.2V256.3Z" fill="#DD9A34"/>
<path id="Vector_66" d="M441.5 89.1998C442.4 89.3998 442.6 95.6998 442.8 105.9C449 103.5 454.5 99.0997 458 93.5997C457.1 86.1997 456.4 78.8998 455.8 71.9998C455.5 68.1998 455.2 64.3997 454.9 60.7997C452.7 60.5997 447.2 60.7997 445 68.7997C442.2 78.8997 437.6 81.6998 437.6 81.6998C437.6 81.6998 437.5 88.4997 441.5 89.2997V89.1998Z" fill="#FF757B"/>
<path id="Vector_67" d="M456.3 383.8C456.3 385.6 455.6 387.1 454.7 387.1C453.8 387.1 453.1 385.6 453.1 383.8C453.1 382 453.8 380.5 454.7 380.5C455.6 380.5 456.3 382 456.3 383.8Z" fill="#DD9A34"/>
<path id="Vector_68" d="M499.5 406.2C499.5 406.2 499.4 406.2 499.3 406.2L492.7 404.3C492.3 404.2 492.1 403.8 492.2 403.4C492.3 403 492.7 402.8 493.1 402.9L499.7 404.8C500.1 404.9 500.3 405.3 500.2 405.7C500.1 406 499.8 406.3 499.5 406.3V406.2Z" fill="#DD9A34"/>
<path id="Vector_69" d="M544.9 296.8C544.7 296.8 544.5 296.8 544.4 296.6L539.2 291.6C538.9 291.3 538.9 290.8 539.2 290.5C539.5 290.2 540 290.2 540.3 290.5L545.5 295.5C545.8 295.8 545.8 296.3 545.5 296.6C545.4 296.8 545.1 296.8 544.9 296.8Z" fill="#FDBC2A"/>
<g id="Group_5">
<path id="Vector_70" d="M564.4 416.5C564.4 417.4 563.7 418.2 562.7 418.2C561.7 418.2 561 417.5 561 416.5C561 415.5 561.7 414.8 562.7 414.8C563.7 414.8 564.4 415.5 564.4 416.5Z" fill="#DD9A34"/>
<path id="Vector_71" d="M557.7 419.3C557.7 419.9 557.3 420.3 556.7 420.3C556.1 420.3 555.7 419.9 555.7 419.3C555.7 418.7 556.1 418.3 556.7 418.3C557.3 418.3 557.7 418.7 557.7 419.3Z" fill="#D4D1E8"/>
<path id="Vector_72" d="M571.6 414.5C572.539 414.5 573.3 413.739 573.3 412.8C573.3 411.861 572.539 411.1 571.6 411.1C570.661 411.1 569.9 411.861 569.9 412.8C569.9 413.739 570.661 414.5 571.6 414.5Z" fill="#DD9A34"/>
<path id="Vector_73" d="M568.8 414.5C568.8 415.4 568.1 416.2 567.1 416.2C566.1 416.2 565.4 415.5 565.4 414.5C565.4 413.5 566.1 412.8 567.1 412.8C568.1 412.8 568.8 413.5 568.8 414.5Z" fill="#DD9A34"/>
<path id="Vector_74" d="M577.6 410.7C577.6 411.6 576.9 412.4 575.9 412.4C574.9 412.4 574.2 411.7 574.2 410.7C574.2 409.7 574.9 409 575.9 409C576.9 409 577.6 409.7 577.6 410.7Z" fill="#DD9A34"/>
</g>
<path id="Vector_75" d="M530.9 266.6C557.9 263.4 559.8 264.4 568.8 265.5C568.8 265.5 554.9 253.4 545.4 249.8C545.4 249.8 539.9 265.8 530.9 266.6Z" fill="#1A6AFF"/>
<path id="Vector_76" d="M514 236.9C514 236.9 529.5 241.2 536.3 245.7C536.3 245.7 528.7 259.4 528.9 265.4C529.1 271.5 527.6 252.5 514 236.9Z" fill="#1A6AFF"/>
<path id="Vector_77" d="M539.7 269.3C538.1 272.3 532.7 272.7 527.5 270C522.3 267.3 519.4 262.7 521 259.7C522.6 256.7 528 256.3 533.2 259C538.4 261.7 541.3 266.3 539.7 269.3Z" fill="#142C39"/>
<g id="Group_6">
<path id="Vector_78" d="M520.4 280.6C520 281.6 519.3 282.2 518.7 282C518.1 281.8 518 280.8 518.4 279.8C518.8 278.8 519.5 278.2 520.1 278.4C520.7 278.6 520.8 279.6 520.4 280.6Z" fill="#D4D1E8"/>
<path id="Vector_79" d="M494.4 332.7C494 333.7 493.3 334.3 492.7 334.1C492.1 333.9 492 332.9 492.4 331.9C492.8 330.9 493.5 330.3 494.1 330.5C494.7 330.7 494.8 331.7 494.4 332.7Z" fill="#D4D1E8"/>
<path id="Vector_80" d="M468.6 395.4C468.2 396.4 467.5 397 466.9 396.8C466.3 396.6 466.2 395.6 466.6 394.6C467 393.6 467.7 393 468.3 393.2C468.9 393.4 469 394.4 468.6 395.4Z" fill="#D4D1E8"/>
<path id="Vector_81" d="M508 304.4C507.6 305.4 506.9 306 506.3 305.8C505.7 305.6 505.6 304.6 506 303.6C506.4 302.6 507.1 302 507.7 302.2C508.3 302.4 508.4 303.4 508 304.4Z" fill="#D4D1E8"/>
<path id="Vector_82" d="M480.4 364C480 365 479.3 365.6 478.7 365.4C478.1 365.2 478 364.2 478.4 363.2C478.8 362.2 479.5 361.6 480.1 361.8C480.7 362 480.8 363 480.4 364Z" fill="#D4D1E8"/>
</g>
<path id="Vector_83" d="M547.5 718.2L541.9 726.4H584.1L547.5 718.2Z" fill="#142C39"/>
<path id="Vector_84" d="M374.5 720.3L336.8 726.4H379.2L374.5 720.3Z" fill="#142C39"/>
</g>
</g>
</g>
</g>
</svg>
