<svg width="690" height="1000" viewBox="0 0 690 1000" fill="none" xmlns="http://www.w3.org/2000/svg">
<g id="Group" filter="url(#filter0_d_1_3)">
<g id="Layer 3">
<g id="Group_2">
<path id="Vector" d="M683.543 469.8C702.943 656.9 566.943 824.4 379.843 843.8C192.743 863.2 25.2426 727.2 5.84261 540.1C-13.5574 353 122.443 185.5 309.543 166.1C496.643 146.7 664.143 282.7 683.543 469.8Z" fill="black"/>
<path id="Vector_2" d="M380.043 427.2L428.943 121.4L448.343 0L395.743 111.1L185.143 556.2L171.843 584.3L202.843 581.1L318.643 569.1L271.343 871.8L252.643 991.2L304.543 882L514.443 440.1L527.843 411.9L380.043 427.2Z" fill="black"/>
<path id="Vector_3" d="M253.443 802.1C228.843 794.6 205.143 784 183.043 770.6C156.043 754.3 131.743 734 110.743 710.4C67.2426 661.4 40.6426 600.9 33.8426 535.4C29.5426 493.5 33.4426 451.9 45.7426 411.9C57.5426 373.2 76.5426 337.7 102.143 306.2C127.743 274.7 158.643 248.9 193.943 229.4C230.543 209.2 270.443 196.8 312.343 192.4C314.143 192.2 315.943 192 317.743 191.9L353.043 188.9L162.643 591.2L312.343 575.7L275.843 808.8L253.443 802V802.1Z" fill="#FFFBD9"/>
<path id="Vector_4" d="M128.743 615.3L140.443 590.6L319.543 212.2C317.843 212.3 316.143 212.5 314.443 212.7C275.243 216.8 237.943 228.4 203.743 247.2C170.643 265.4 141.743 289.6 117.843 319C93.9426 348.4 76.2427 381.7 65.1427 417.8C53.7427 455.2 49.9427 494 54.0427 533.2C60.3427 594.4 85.2426 650.9 125.943 696.7C145.543 718.8 168.243 737.7 193.543 753C214.243 765.5 236.343 775.4 259.343 782.4L288.143 598.6L128.743 615.1V615.3Z" fill="#FFC800"/>
<path id="Vector_5" d="M342.343 817.7L538.443 404.8L387.743 420.4L423.043 199.8L445.943 207.7C469.243 215.7 491.643 226.5 512.443 239.8C538.343 256.3 561.643 276.5 581.643 299.8C623.143 348.1 648.543 407.3 655.143 470.9C659.443 512.8 655.443 554.4 643.243 594.4C631.443 633.1 612.443 668.6 586.943 700.1C561.343 731.6 530.443 757.4 495.143 776.9C459.043 796.8 419.843 809.1 378.643 813.7L342.343 817.7ZM591.043 389.1L579.043 414.3L411.743 766.5C433.943 760.9 455.243 752.4 475.443 741.3C506.243 724.4 533.043 701.9 555.343 674.5C577.543 647.1 594.043 616.2 604.343 582.6C614.943 547.9 618.443 511.7 614.643 475.3C611.543 445.1 603.543 416.1 591.043 389.2V389.1ZM455.543 255.3L436.443 374.5L575.443 360.1C568.143 348.3 559.943 337.1 550.743 326.5C533.343 306.2 513.043 288.7 490.543 274.3C479.343 267.1 467.543 260.8 455.443 255.3H455.543Z" fill="#FFFBD9"/>
<path id="Vector_6" d="M634.943 473.1C628.743 413.6 605.043 358.3 566.243 313.2C547.543 291.4 525.743 272.5 501.543 257.1C482.043 244.6 461.143 234.6 439.343 227.1L412.043 397.6L545.143 383.8L572.343 381L560.643 405.7L376.343 793.6C414.943 789.4 451.543 777.8 485.243 759.2C518.343 741 547.243 716.8 571.143 687.4C595.043 658 612.743 624.7 623.843 588.6C635.243 551.2 639.043 512.4 634.943 473.2" fill="#FFC800"/>
<path id="Vector_7" d="M344.443 543.4L207.943 557.6L402.643 146L353.943 450.6L491.543 436.4L297.243 845.3L344.443 543.4Z" fill="#E23A2D"/>
<path id="Vector_8" d="M402.643 146L277.043 527.8L353.943 450.6L402.643 146Z" fill="#F25C49"/>
<path id="Vector_9" d="M491.543 436.4L353.943 450.6L277.043 527.8L491.543 436.4Z" fill="#F28D86"/>
<path id="Vector_10" d="M491.543 436.4L409.243 471.5L297.243 845.3L491.543 436.4Z" fill="#F25C49"/>
<path id="Vector_11" d="M409.243 471.5L344.443 543.4L207.943 557.6L409.243 471.5Z" fill="#C62118"/>
</g>
</g>
</g>
<defs>
<filter id="filter0_d_1_3" x="0" y="0" width="689.385" height="999.2" filterUnits="userSpaceOnUse" color-interpolation-filters="sRGB">
<feFlood flood-opacity="0" result="BackgroundImageFix"/>
<feColorMatrix in="SourceAlpha" type="matrix" values="0 0 0 0 0 0 0 0 0 0 0 0 0 0 0 0 0 0 127 0" result="hardAlpha"/>
<feOffset dy="4"/>
<feGaussianBlur stdDeviation="2"/>
<feComposite in2="hardAlpha" operator="out"/>
<feColorMatrix type="matrix" values="0 0 0 0 0 0 0 0 0 0 0 0 0 0 0 0 0 0 0.25 0"/>
<feBlend mode="normal" in2="BackgroundImageFix" result="effect1_dropShadow_1_3"/>
<feBlend mode="normal" in="SourceGraphic" in2="effect1_dropShadow_1_3" result="shape"/>
</filter>
</defs>
</svg>
