<svg xmlns="http://www.w3.org/2000/svg" xmlns:xlink="http://www.w3.org/1999/xlink" id="Layer_1" data-name="Layer 1" version="1.1" viewBox="643.7 709.47 1720.35 594.54">
  <defs>
    <style>
      .cls-1 {
        fill: #0080ff;
      }

      .cls-1, .cls-2, .cls-3, .cls-4, .cls-5, .cls-6, .cls-7, .cls-8, .cls-9, .cls-10, .cls-11, .cls-12, .cls-13, .cls-14, .cls-15, .cls-16, .cls-17, .cls-18, .cls-19, .cls-20, .cls-21, .cls-22, .cls-23, .cls-24, .cls-25, .cls-26, .cls-27, .cls-28, .cls-29, .cls-30, .cls-31, .cls-32 {
        stroke-width: 0px;
      }

      .cls-2 {
        fill: #fff599;
      }

      .cls-3 {
        fill: none;
      }

      .cls-4 {
        fill: #ffc800;
      }

      .cls-5 {
        fill: url(#linear-gradient);
      }

      .cls-6 {
        fill: url(#linear-gradient-11);
      }

      .cls-7 {
        fill: url(#linear-gradient-12);
      }

      .cls-8 {
        fill: url(#linear-gradient-13);
      }

      .cls-9 {
        fill: url(#linear-gradient-10);
      }

      .cls-10 {
        fill: url(#linear-gradient-17);
      }

      .cls-11 {
        fill: url(#linear-gradient-16);
      }

      .cls-12 {
        fill: url(#linear-gradient-19);
      }

      .cls-13 {
        fill: url(#linear-gradient-15);
      }

      .cls-14 {
        fill: url(#linear-gradient-23);
      }

      .cls-15 {
        fill: url(#linear-gradient-21);
      }

      .cls-16 {
        fill: url(#linear-gradient-18);
      }

      .cls-17 {
        fill: url(#linear-gradient-14);
      }

      .cls-18 {
        fill: url(#linear-gradient-22);
      }

      .cls-19 {
        fill: url(#linear-gradient-20);
      }

      .cls-20 {
        fill: url(#linear-gradient-24);
      }

      .cls-21 {
        fill: #ffb700;
      }

      .cls-22 {
        fill: #000000;
        opacity: 0.3;
        mix-blend-mode: multiply;
      }

      .cls-22, .cls-33 {
        isolation: isolate;
      }

      .cls-23 {
        fill: #212326;
      }

      .cls-24 {
        fill: url(#linear-gradient-4);
      }

      .cls-25 {
        fill: url(#linear-gradient-2);
      }

      .cls-26 {
        fill: url(#linear-gradient-3);
      }

      .cls-27 {
        fill: url(#linear-gradient-8);
      }

      .cls-28 {
        fill: url(#linear-gradient-9);
      }

      .cls-29 {
        fill: url(#linear-gradient-7);
      }

      .cls-30 {
        fill: url(#linear-gradient-5);
      }

      .cls-31 {
        fill: url(#linear-gradient-6);
      }

      .cls-32 {
        fill: #fffbd9;
      }
    </style>
    <linearGradient id="linear-gradient" x1="736.6" y1="1364" x2="762.4" y2="1389.8" gradientTransform="translate(-6 2750.3) rotate(-13) scale(1 -1) skewX(12.4)" gradientUnits="userSpaceOnUse">
      <stop offset="0" stop-color="#212326"/>
      <stop offset=".2" stop-color="#212326"/>
      <stop offset=".2" stop-color="#0080ff"/>
      <stop offset=".3" stop-color="#0080ff"/>
      <stop offset=".3" stop-color="#212326"/>
      <stop offset=".5" stop-color="#212326"/>
      <stop offset=".5" stop-color="#0080ff"/>
      <stop offset=".7" stop-color="#0080ff"/>
      <stop offset=".7" stop-color="#212326"/>
      <stop offset=".8" stop-color="#212326"/>
      <stop offset=".8" stop-color="#0080ff"/>
      <stop offset="1" stop-color="#0080ff"/>
    </linearGradient>
    <linearGradient id="linear-gradient-2" x1="802.4" y1="1474.8" x2="828.1" y2="1500.6" gradientTransform="translate(-6 2750.3) rotate(-13) scale(1 -1) skewX(12.4)" gradientUnits="userSpaceOnUse">
      <stop offset="0" stop-color="#212326"/>
      <stop offset=".2" stop-color="#212326"/>
      <stop offset=".2" stop-color="#0080ff"/>
      <stop offset=".3" stop-color="#0080ff"/>
      <stop offset=".3" stop-color="#212326"/>
      <stop offset=".5" stop-color="#212326"/>
      <stop offset=".5" stop-color="#0080ff"/>
      <stop offset=".7" stop-color="#0080ff"/>
      <stop offset=".7" stop-color="#212326"/>
      <stop offset=".8" stop-color="#212326"/>
      <stop offset=".8" stop-color="#0080ff"/>
      <stop offset="1" stop-color="#0080ff"/>
    </linearGradient>
    <linearGradient id="linear-gradient-3" x1="818.5" y1="1585.5" x2="844.3" y2="1611.3" gradientTransform="translate(-6 2750.3) rotate(-13) scale(1 -1) skewX(12.4)" gradientUnits="userSpaceOnUse">
      <stop offset="0" stop-color="#212326"/>
      <stop offset=".2" stop-color="#212326"/>
      <stop offset=".2" stop-color="#0080ff"/>
      <stop offset=".3" stop-color="#0080ff"/>
      <stop offset=".3" stop-color="#212326"/>
      <stop offset=".5" stop-color="#212326"/>
      <stop offset=".5" stop-color="#0080ff"/>
      <stop offset=".7" stop-color="#0080ff"/>
      <stop offset=".7" stop-color="#212326"/>
      <stop offset=".8" stop-color="#212326"/>
      <stop offset=".8" stop-color="#0080ff"/>
      <stop offset="1" stop-color="#0080ff"/>
    </linearGradient>
    <linearGradient id="linear-gradient-4" x1="879.7" y1="1363.6" x2="902.4" y2="1386.3" gradientTransform="translate(-6 2750.3) rotate(-13) scale(1 -1) skewX(12.4)" gradientUnits="userSpaceOnUse">
      <stop offset="0" stop-color="#212326"/>
      <stop offset=".2" stop-color="#212326"/>
      <stop offset=".2" stop-color="#0080ff"/>
      <stop offset=".3" stop-color="#0080ff"/>
      <stop offset=".3" stop-color="#212326"/>
      <stop offset=".5" stop-color="#212326"/>
      <stop offset=".5" stop-color="#0080ff"/>
      <stop offset=".7" stop-color="#0080ff"/>
      <stop offset=".7" stop-color="#212326"/>
      <stop offset=".8" stop-color="#212326"/>
      <stop offset=".8" stop-color="#0080ff"/>
      <stop offset="1" stop-color="#0080ff"/>
    </linearGradient>
    <linearGradient id="linear-gradient-5" x1="974.4" y1="1365.4" x2="1002.6" y2="1393.6" gradientTransform="translate(-6 2750.3) rotate(-13) scale(1 -1) skewX(12.4)" gradientUnits="userSpaceOnUse">
      <stop offset="0" stop-color="#212326"/>
      <stop offset=".2" stop-color="#212326"/>
      <stop offset=".2" stop-color="#0080ff"/>
      <stop offset=".3" stop-color="#0080ff"/>
      <stop offset=".3" stop-color="#212326"/>
      <stop offset=".5" stop-color="#212326"/>
      <stop offset=".5" stop-color="#0080ff"/>
      <stop offset=".7" stop-color="#0080ff"/>
      <stop offset=".7" stop-color="#212326"/>
      <stop offset=".8" stop-color="#212326"/>
      <stop offset=".8" stop-color="#0080ff"/>
      <stop offset="1" stop-color="#0080ff"/>
    </linearGradient>
    <linearGradient id="linear-gradient-6" x1="1070.4" y1="1573" x2="1088.8" y2="1591.4" gradientTransform="translate(-6 2750.3) rotate(-13) scale(1 -1) skewX(12.4)" gradientUnits="userSpaceOnUse">
      <stop offset="0" stop-color="#0080ff"/>
      <stop offset=".2" stop-color="#0080ff"/>
      <stop offset=".2" stop-color="#212326"/>
      <stop offset=".3" stop-color="#212326"/>
      <stop offset=".3" stop-color="#0080ff"/>
      <stop offset=".5" stop-color="#0080ff"/>
      <stop offset=".5" stop-color="#212326"/>
      <stop offset=".7" stop-color="#212326"/>
      <stop offset=".7" stop-color="#0080ff"/>
      <stop offset=".8" stop-color="#0080ff"/>
      <stop offset=".8" stop-color="#212326"/>
      <stop offset="1" stop-color="#212326"/>
    </linearGradient>
    <linearGradient id="linear-gradient-7" x1="1137.4" y1="1535.9" x2="1163.2" y2="1561.7" gradientTransform="translate(-6 2750.3) rotate(-13) scale(1 -1) skewX(12.4)" gradientUnits="userSpaceOnUse">
      <stop offset="0" stop-color="#212326"/>
      <stop offset=".2" stop-color="#212326"/>
      <stop offset=".2" stop-color="#0080ff"/>
      <stop offset=".3" stop-color="#0080ff"/>
      <stop offset=".3" stop-color="#212326"/>
      <stop offset=".5" stop-color="#212326"/>
      <stop offset=".5" stop-color="#0080ff"/>
      <stop offset=".7" stop-color="#0080ff"/>
      <stop offset=".7" stop-color="#212326"/>
      <stop offset=".8" stop-color="#212326"/>
      <stop offset=".8" stop-color="#0080ff"/>
      <stop offset="1" stop-color="#0080ff"/>
    </linearGradient>
    <linearGradient id="linear-gradient-8" x1="1098.3" y1="1358.5" x2="1168.2" y2="1428.4" gradientTransform="translate(-6 2750.3) rotate(-13) scale(1 -1) skewX(12.4)" gradientUnits="userSpaceOnUse">
      <stop offset=".2" stop-color="#212326"/>
      <stop offset=".2" stop-color="#0080ff"/>
      <stop offset=".2" stop-color="#0080ff"/>
      <stop offset=".2" stop-color="#212326"/>
      <stop offset=".3" stop-color="#212326"/>
      <stop offset=".3" stop-color="#0080ff"/>
      <stop offset=".4" stop-color="#0080ff"/>
      <stop offset=".4" stop-color="#212326"/>
      <stop offset=".5" stop-color="#212326"/>
      <stop offset=".5" stop-color="#0080ff"/>
      <stop offset=".6" stop-color="#0080ff"/>
      <stop offset=".6" stop-color="#212326"/>
      <stop offset=".7" stop-color="#212326"/>
      <stop offset=".7" stop-color="#0080ff"/>
      <stop offset=".8" stop-color="#0080ff"/>
      <stop offset=".8" stop-color="#212326"/>
      <stop offset=".8" stop-color="#212326"/>
      <stop offset=".8" stop-color="#0080ff"/>
    </linearGradient>
    <linearGradient id="linear-gradient-9" x1="1292.1" y1="1584.3" x2="1317.8" y2="1610.1" gradientTransform="translate(-6 2750.3) rotate(-13) scale(1 -1) skewX(12.4)" gradientUnits="userSpaceOnUse">
      <stop offset="0" stop-color="#212326"/>
      <stop offset=".2" stop-color="#212326"/>
      <stop offset=".2" stop-color="#0080ff"/>
      <stop offset=".3" stop-color="#0080ff"/>
      <stop offset=".3" stop-color="#212326"/>
      <stop offset=".5" stop-color="#212326"/>
      <stop offset=".5" stop-color="#0080ff"/>
      <stop offset=".7" stop-color="#0080ff"/>
      <stop offset=".7" stop-color="#212326"/>
      <stop offset=".8" stop-color="#212326"/>
      <stop offset=".8" stop-color="#0080ff"/>
      <stop offset="1" stop-color="#0080ff"/>
    </linearGradient>
    <linearGradient id="linear-gradient-10" x1="1248.7" y1="1362.9" x2="1274.4" y2="1388.6" gradientTransform="translate(-6 2750.3) rotate(-13) scale(1 -1) skewX(12.4)" gradientUnits="userSpaceOnUse">
      <stop offset="0" stop-color="#212326"/>
      <stop offset=".2" stop-color="#212326"/>
      <stop offset=".2" stop-color="#0080ff"/>
      <stop offset=".3" stop-color="#0080ff"/>
      <stop offset=".3" stop-color="#212326"/>
      <stop offset=".5" stop-color="#212326"/>
      <stop offset=".5" stop-color="#0080ff"/>
      <stop offset=".7" stop-color="#0080ff"/>
      <stop offset=".7" stop-color="#212326"/>
      <stop offset=".8" stop-color="#212326"/>
      <stop offset=".8" stop-color="#0080ff"/>
      <stop offset="1" stop-color="#0080ff"/>
    </linearGradient>
    <linearGradient id="linear-gradient-11" x1="2269.9" y1="1218.8" x2="2295.9" y2="1244.9" gradientTransform="translate(-6 2750.3) rotate(-13) scale(1 -1) skewX(12.4)" gradientUnits="userSpaceOnUse">
      <stop offset="0" stop-color="#212326"/>
      <stop offset=".2" stop-color="#212326"/>
      <stop offset=".2" stop-color="#0080ff"/>
      <stop offset=".3" stop-color="#0080ff"/>
      <stop offset=".3" stop-color="#212326"/>
      <stop offset=".5" stop-color="#212326"/>
      <stop offset=".5" stop-color="#0080ff"/>
      <stop offset=".7" stop-color="#0080ff"/>
      <stop offset=".7" stop-color="#212326"/>
      <stop offset=".8" stop-color="#212326"/>
      <stop offset=".8" stop-color="#0080ff"/>
      <stop offset="1" stop-color="#0080ff"/>
    </linearGradient>
    <linearGradient id="linear-gradient-12" x1="2088.2" y1="1428.8" x2="2106.8" y2="1447.4" gradientTransform="translate(-6 2750.3) rotate(-13) scale(1 -1) skewX(12.4)" gradientUnits="userSpaceOnUse">
      <stop offset="0" stop-color="#0080ff"/>
      <stop offset=".2" stop-color="#0080ff"/>
      <stop offset=".2" stop-color="#212326"/>
      <stop offset=".3" stop-color="#212326"/>
      <stop offset=".3" stop-color="#0080ff"/>
      <stop offset=".5" stop-color="#0080ff"/>
      <stop offset=".5" stop-color="#212326"/>
      <stop offset=".7" stop-color="#212326"/>
      <stop offset=".7" stop-color="#0080ff"/>
      <stop offset=".8" stop-color="#0080ff"/>
      <stop offset=".8" stop-color="#212326"/>
      <stop offset="1" stop-color="#212326"/>
    </linearGradient>
    <linearGradient id="linear-gradient-13" x1="2116.4" y1="1211.5" x2="2187.2" y2="1282.3" gradientTransform="translate(-6 2750.3) rotate(-13) scale(1 -1) skewX(12.4)" gradientUnits="userSpaceOnUse">
      <stop offset=".2" stop-color="#212326"/>
      <stop offset=".2" stop-color="#0080ff"/>
      <stop offset=".2" stop-color="#0080ff"/>
      <stop offset=".2" stop-color="#212326"/>
      <stop offset=".3" stop-color="#212326"/>
      <stop offset=".3" stop-color="#0080ff"/>
      <stop offset=".4" stop-color="#0080ff"/>
      <stop offset=".4" stop-color="#212326"/>
      <stop offset=".5" stop-color="#212326"/>
      <stop offset=".5" stop-color="#0080ff"/>
      <stop offset=".6" stop-color="#0080ff"/>
      <stop offset=".6" stop-color="#212326"/>
      <stop offset=".7" stop-color="#212326"/>
      <stop offset=".7" stop-color="#0080ff"/>
      <stop offset=".8" stop-color="#0080ff"/>
      <stop offset=".8" stop-color="#212326"/>
      <stop offset=".8" stop-color="#212326"/>
      <stop offset=".8" stop-color="#0080ff"/>
    </linearGradient>
    <linearGradient id="linear-gradient-14" x1="2156.1" y1="1391.2" x2="2182.1" y2="1417.2" gradientTransform="translate(-6 2750.3) rotate(-13) scale(1 -1) skewX(12.4)" gradientUnits="userSpaceOnUse">
      <stop offset="0" stop-color="#212326"/>
      <stop offset=".2" stop-color="#212326"/>
      <stop offset=".2" stop-color="#0080ff"/>
      <stop offset=".3" stop-color="#0080ff"/>
      <stop offset=".3" stop-color="#212326"/>
      <stop offset=".5" stop-color="#212326"/>
      <stop offset=".5" stop-color="#0080ff"/>
      <stop offset=".7" stop-color="#0080ff"/>
      <stop offset=".7" stop-color="#212326"/>
      <stop offset=".8" stop-color="#212326"/>
      <stop offset=".8" stop-color="#0080ff"/>
      <stop offset="1" stop-color="#0080ff"/>
    </linearGradient>
    <linearGradient id="linear-gradient-15" x1="1977.7" y1="1219.2" x2="2003.8" y2="1245.2" gradientTransform="translate(-6 2750.3) rotate(-13) scale(1 -1) skewX(12.4)" gradientUnits="userSpaceOnUse">
      <stop offset="0" stop-color="#212326"/>
      <stop offset=".2" stop-color="#212326"/>
      <stop offset=".2" stop-color="#0080ff"/>
      <stop offset=".3" stop-color="#0080ff"/>
      <stop offset=".3" stop-color="#212326"/>
      <stop offset=".5" stop-color="#212326"/>
      <stop offset=".5" stop-color="#0080ff"/>
      <stop offset=".7" stop-color="#0080ff"/>
      <stop offset=".7" stop-color="#212326"/>
      <stop offset=".8" stop-color="#212326"/>
      <stop offset=".8" stop-color="#0080ff"/>
      <stop offset="1" stop-color="#0080ff"/>
    </linearGradient>
    <linearGradient id="linear-gradient-16" x1="1888.5" y1="1219" x2="1914.6" y2="1245.1" gradientTransform="translate(-6 2750.3) rotate(-13) scale(1 -1) skewX(12.4)" gradientUnits="userSpaceOnUse">
      <stop offset="0" stop-color="#212326"/>
      <stop offset=".2" stop-color="#212326"/>
      <stop offset=".2" stop-color="#0080ff"/>
      <stop offset=".3" stop-color="#0080ff"/>
      <stop offset=".3" stop-color="#212326"/>
      <stop offset=".5" stop-color="#212326"/>
      <stop offset=".5" stop-color="#0080ff"/>
      <stop offset=".7" stop-color="#0080ff"/>
      <stop offset=".7" stop-color="#212326"/>
      <stop offset=".8" stop-color="#212326"/>
      <stop offset=".8" stop-color="#0080ff"/>
      <stop offset="1" stop-color="#0080ff"/>
    </linearGradient>
    <linearGradient id="linear-gradient-17" x1="1797.6" y1="1220" x2="1823.6" y2="1246.1" gradientTransform="translate(-6 2750.3) rotate(-13) scale(1 -1) skewX(12.4)" gradientUnits="userSpaceOnUse">
      <stop offset="0" stop-color="#212326"/>
      <stop offset=".2" stop-color="#212326"/>
      <stop offset=".2" stop-color="#0080ff"/>
      <stop offset=".3" stop-color="#0080ff"/>
      <stop offset=".3" stop-color="#212326"/>
      <stop offset=".5" stop-color="#212326"/>
      <stop offset=".5" stop-color="#0080ff"/>
      <stop offset=".7" stop-color="#0080ff"/>
      <stop offset=".7" stop-color="#212326"/>
      <stop offset=".8" stop-color="#212326"/>
      <stop offset=".8" stop-color="#0080ff"/>
      <stop offset="1" stop-color="#0080ff"/>
    </linearGradient>
    <linearGradient id="linear-gradient-18" x1="1780.5" y1="1332.1" x2="1806.6" y2="1358.1" gradientTransform="translate(-6 2750.3) rotate(-13) scale(1 -1) skewX(12.4)" gradientUnits="userSpaceOnUse">
      <stop offset="0" stop-color="#212326"/>
      <stop offset=".2" stop-color="#212326"/>
      <stop offset=".2" stop-color="#0080ff"/>
      <stop offset=".3" stop-color="#0080ff"/>
      <stop offset=".3" stop-color="#212326"/>
      <stop offset=".5" stop-color="#212326"/>
      <stop offset=".5" stop-color="#0080ff"/>
      <stop offset=".7" stop-color="#0080ff"/>
      <stop offset=".7" stop-color="#212326"/>
      <stop offset=".8" stop-color="#212326"/>
      <stop offset=".8" stop-color="#0080ff"/>
      <stop offset="1" stop-color="#0080ff"/>
    </linearGradient>
    <linearGradient id="linear-gradient-19" x1="1796.9" y1="1444.2" x2="1822.9" y2="1470.2" gradientTransform="translate(-6 2750.3) rotate(-13) scale(1 -1) skewX(12.4)" gradientUnits="userSpaceOnUse">
      <stop offset="0" stop-color="#212326"/>
      <stop offset=".2" stop-color="#212326"/>
      <stop offset=".2" stop-color="#0080ff"/>
      <stop offset=".3" stop-color="#0080ff"/>
      <stop offset=".3" stop-color="#212326"/>
      <stop offset=".5" stop-color="#212326"/>
      <stop offset=".5" stop-color="#0080ff"/>
      <stop offset=".7" stop-color="#0080ff"/>
      <stop offset=".7" stop-color="#212326"/>
      <stop offset=".8" stop-color="#212326"/>
      <stop offset=".8" stop-color="#0080ff"/>
      <stop offset="1" stop-color="#0080ff"/>
    </linearGradient>
    <linearGradient id="linear-gradient-20" x1="1623.5" y1="1392.9" x2="1649.6" y2="1418.9" gradientTransform="translate(-6 2750.3) rotate(-13) scale(1 -1) skewX(12.4)" gradientUnits="userSpaceOnUse">
      <stop offset="0" stop-color="#212326"/>
      <stop offset=".2" stop-color="#212326"/>
      <stop offset=".2" stop-color="#0080ff"/>
      <stop offset=".3" stop-color="#0080ff"/>
      <stop offset=".3" stop-color="#212326"/>
      <stop offset=".5" stop-color="#212326"/>
      <stop offset=".5" stop-color="#0080ff"/>
      <stop offset=".7" stop-color="#0080ff"/>
      <stop offset=".7" stop-color="#212326"/>
      <stop offset=".8" stop-color="#212326"/>
      <stop offset=".8" stop-color="#0080ff"/>
      <stop offset="1" stop-color="#0080ff"/>
    </linearGradient>
    <linearGradient id="linear-gradient-21" x1="1555.7" y1="1430.5" x2="1574.3" y2="1449.1" gradientTransform="translate(-6 2750.3) rotate(-13) scale(1 -1) skewX(12.4)" gradientUnits="userSpaceOnUse">
      <stop offset="0" stop-color="#0080ff"/>
      <stop offset=".2" stop-color="#0080ff"/>
      <stop offset=".2" stop-color="#212326"/>
      <stop offset=".3" stop-color="#212326"/>
      <stop offset=".3" stop-color="#0080ff"/>
      <stop offset=".5" stop-color="#0080ff"/>
      <stop offset=".5" stop-color="#212326"/>
      <stop offset=".7" stop-color="#212326"/>
      <stop offset=".7" stop-color="#0080ff"/>
      <stop offset=".8" stop-color="#0080ff"/>
      <stop offset=".8" stop-color="#212326"/>
      <stop offset="1" stop-color="#212326"/>
    </linearGradient>
    <linearGradient id="linear-gradient-22" x1="1583.9" y1="1213.2" x2="1654.7" y2="1284" gradientTransform="translate(-6 2750.3) rotate(-13) scale(1 -1) skewX(12.4)" gradientUnits="userSpaceOnUse">
      <stop offset=".2" stop-color="#212326"/>
      <stop offset=".2" stop-color="#0080ff"/>
      <stop offset=".2" stop-color="#0080ff"/>
      <stop offset=".2" stop-color="#212326"/>
      <stop offset=".3" stop-color="#212326"/>
      <stop offset=".3" stop-color="#0080ff"/>
      <stop offset=".4" stop-color="#0080ff"/>
      <stop offset=".4" stop-color="#212326"/>
      <stop offset=".5" stop-color="#212326"/>
      <stop offset=".5" stop-color="#0080ff"/>
      <stop offset=".6" stop-color="#0080ff"/>
      <stop offset=".6" stop-color="#212326"/>
      <stop offset=".7" stop-color="#212326"/>
      <stop offset=".7" stop-color="#0080ff"/>
      <stop offset=".8" stop-color="#0080ff"/>
      <stop offset=".8" stop-color="#212326"/>
      <stop offset=".8" stop-color="#212326"/>
      <stop offset=".8" stop-color="#0080ff"/>
    </linearGradient>
    <linearGradient id="linear-gradient-23" x1="1362.6" y1="1219.3" x2="1385.6" y2="1242.2" gradientTransform="translate(-6 2750.3) rotate(-13) scale(1 -1) skewX(12.4)" gradientUnits="userSpaceOnUse">
      <stop offset="0" stop-color="#212326"/>
      <stop offset=".2" stop-color="#212326"/>
      <stop offset=".2" stop-color="#0080ff"/>
      <stop offset=".3" stop-color="#0080ff"/>
      <stop offset=".3" stop-color="#212326"/>
      <stop offset=".5" stop-color="#212326"/>
      <stop offset=".5" stop-color="#0080ff"/>
      <stop offset=".7" stop-color="#0080ff"/>
      <stop offset=".7" stop-color="#212326"/>
      <stop offset=".8" stop-color="#212326"/>
      <stop offset=".8" stop-color="#0080ff"/>
      <stop offset="1" stop-color="#0080ff"/>
    </linearGradient>
    <linearGradient id="linear-gradient-24" x1="1458.5" y1="1221.1" x2="1487.1" y2="1249.6" gradientTransform="translate(-6 2750.3) rotate(-13) scale(1 -1) skewX(12.4)" gradientUnits="userSpaceOnUse">
      <stop offset="0" stop-color="#212326"/>
      <stop offset=".2" stop-color="#212326"/>
      <stop offset=".2" stop-color="#0080ff"/>
      <stop offset=".3" stop-color="#0080ff"/>
      <stop offset=".3" stop-color="#212326"/>
      <stop offset=".5" stop-color="#212326"/>
      <stop offset=".5" stop-color="#0080ff"/>
      <stop offset=".7" stop-color="#0080ff"/>
      <stop offset=".7" stop-color="#212326"/>
      <stop offset=".8" stop-color="#212326"/>
      <stop offset=".8" stop-color="#0080ff"/>
      <stop offset="1" stop-color="#0080ff"/>
    </linearGradient>
  </defs>
  <g class="cls-33">
    <g id="Layer_3" data-name="Layer 3">
      <g>
        <g>
          <path class="cls-22" d="M1156,1128.8v34c0,16.2,13.2,26.4,29.4,22.6,5.1-1.2,10.1-3.6,14.5-7.2l76.7-62c3.5-2.8,6.4-6.2,8.8-9.8,0-.1.2-.3.2-.4.2-.2.3-.5.4-.7.3-.5.6-.9.8-1.4h0c.2-.3.3-.6.5-.9,0,0,0,0,0,0,1.7-3.3,2.9-6.8,3.5-10.4,0,0,0-.2,0-.2,0-.2,0-.5.1-.7,0-.2,0-.5,0-.7,0-.2,0-.4,0-.6,0-.4,0-.8,0-1.1,0-.1,0-.3,0-.4,0-.4,0-.9,0-1.3v-178.2l29.4-23.8c3.5-2.8,6.4-6.2,8.8-9.8,0-.1.2-.3.2-.4.2-.2.3-.5.4-.7.3-.4.5-.9.8-1.3,0,0,0,0,0,0,.2-.3.3-.6.5-.9,0,0,0,0,0,0,1.4-2.8,2.5-5.7,3.2-8.7h0c.1-.6.2-1.2.3-1.8,0,0,0-.2,0-.3,0-.2,0-.5.1-.7,0-.2,0-.5,0-.7,0-.2,0-.4,0-.6,0-.4,0-.8,0-1.2,0-.1,0-.3,0-.4,0-.4,0-.9,0-1.3s0-1,0-1.5c0-.3,0-.6,0-.9,0-.2,0-.4,0-.5,0-.4,0-.7-.1-1.1,0-.1,0-.2,0-.3,0-.4-.1-.8-.2-1.1,0,0,0-.2,0-.3,0-.4-.2-.7-.3-1.1,0,0,0-.2,0-.3,0-.3-.2-.7-.3-1,0,0,0-.2,0-.3-.1-.3-.2-.6-.3-1,0-.1,0-.2-.1-.3-.1-.3-.3-.6-.4-.9,0,0,0-.2-.1-.3,0-.2-.1-.3-.2-.5-2.3-4.5-5.9-7.9-10.3-9.8,0,0-.2,0-.2-.1-.3-.1-.5-.2-.8-.3-.1,0-.2,0-.3-.1-.3-.1-.7-.2-1-.3-.2,0-.4-.1-.6-.2-.1,0-.3,0-.4-.1-.2,0-.5-.1-.7-.2,0,0-.2,0-.2,0-.9-.2-1.7-.3-2.6-.4,0,0-.1,0-.2,0-.9,0-1.8-.1-2.7-.1h-.3c-.2,0-.5,0-.8,0-.2,0-.4,0-.5,0-.2,0-.4,0-.7,0-.4,0-.8,0-1.2.1-.2,0-.3,0-.5,0-.3,0-.6,0-.9.1-.1,0-.3,0-.4,0-.4,0-.9.2-1.3.3l-88.3,20.4c-.4,0-.9.2-1.3.3-.1,0-.2,0-.3,0-.4.1-.8.2-1.2.4-.1,0-.2,0-.3.1-.3.1-.6.2-.9.3-.2,0-.3.1-.5.2-.4.2-.8.3-1.1.5-.1,0-.3.1-.4.2-.3.1-.6.3-.8.4-.1,0-.3.1-.4.2-.4.2-.8.4-1.2.6,0,0-.2,0-.3.1-.4.2-.7.4-1.1.6,0,0,0,0-.1,0-1.6.9-3.1,2-4.5,3.2l-39.6,32c-.2-.2-.4-.3-.5-.5-.3-.3-.6-.6-.9-.8-.3-.3-.7-.6-1.1-1-.2-.2-.4-.3-.6-.5-.4-.4-.9-.7-1.3-1,0,0-.2-.1-.2-.2-.6-.4-1.1-.8-1.7-1.3,0,0-.2-.1-.2-.2-12.4-8.7-28.9-12.2-47.1-8.8-.2,0-.4,0-.6.1-.8.2-1.6.3-2.4.5-.7.2-1.5.4-2.2.5-.2,0-.4,0-.6.2-.6.2-1.2.3-1.8.5-.2,0-.3,0-.4.1-9.7,2.9-18.9,7.5-27.2,13.5,0,0-.2.2-.3.2-.5.4-1.1.8-1.6,1.2-.2.1-.4.3-.6.4-.5.4-1,.8-1.5,1.2,0,0-.2.2-.3.2l-76.5,61.8h0c-5.3,4.4-10.2,9.2-14.5,14.4l-9.9-43.1s0,0,0,0c0-.4-.2-.8-.3-1.2,0-.2-.1-.3-.2-.5,0-.2-.2-.5-.2-.7,0-.2-.2-.5-.2-.7,0-.1-.1-.3-.2-.4-.1-.3-.2-.6-.4-.9h0c-.1-.3-.3-.6-.4-.9-3.6-7.2-10.5-11.5-18.9-11.9-1.7,0-3.5,0-5.2.3,0,0-.1,0-.2,0-.3,0-.7,0-1,.2,0,0-.2,0-.3,0-.4,0-.8.2-1.2.2s-.8.2-1.2.3c0,0-.2,0-.3,0-.3,0-.6.2-1,.3,0,0-.1,0-.2,0-4.2,1.4-8.4,3.6-12.1,6.6l-67.3,54.4c.7-1.8,1.3-3.6,1.7-5.4h0c.1-.6.2-1.2.3-1.8,0,0,0-.2,0-.3,0-.2,0-.5.1-.7,0-.2,0-.5,0-.7,0-.2,0-.4,0-.6,0-.4,0-.8,0-1.2,0-.1,0-.3,0-.4,0-.4,0-.9,0-1.3s0-1,0-1.5c0-.3,0-.6,0-.9,0-.2,0-.4,0-.5,0-.4,0-.8-.2-1.1,0,0,0-.2,0-.3,0-.4-.1-.8-.2-1.2,0,0,0-.2,0-.2,0-.4-.2-.7-.3-1.1,0,0,0-.2,0-.3,0-.3-.2-.7-.3-1,0,0,0-.2,0-.3-.1-.3-.2-.7-.4-1,0,0,0-.2-.1-.3-.1-.3-.3-.6-.4-.9,0,0,0-.2-.1-.3,0-.2-.1-.3-.2-.5-2.3-4.5-5.9-7.9-10.3-9.8,0,0-.2,0-.3-.1-.3-.1-.5-.2-.8-.3-.1,0-.2,0-.4-.1-.3-.1-.6-.2-1-.3-.2,0-.4-.1-.6-.2-.1,0-.3,0-.4-.1-.2,0-.5-.1-.7-.2,0,0-.2,0-.2,0-.9-.2-1.7-.3-2.6-.4,0,0-.1,0-.2,0-.9,0-1.8-.1-2.7-.1h-.3c-.2,0-.5,0-.8,0-.2,0-.4,0-.5,0-.2,0-.4,0-.7,0-.4,0-.8,0-1.2.1-.2,0-.3,0-.5,0-.3,0-.6,0-.9.1-.1,0-.3,0-.4,0-.4,0-.9.2-1.3.3l-82.7,19.1c-.4,0-.9.2-1.3.3-.1,0-.2,0-.3,0-.4.1-.8.2-1.2.4-.1,0-.2,0-.3.1-.3.1-.6.2-1,.3-.2,0-.3.1-.5.2-.4.2-.8.3-1.1.5-.2,0-.3.1-.4.2-.3.1-.6.2-.8.4s-.3.1-.4.2c-.4.2-.8.4-1.2.6,0,0-.2,0-.3.2-.4.2-.7.4-1.1.6,0,0,0,0-.1,0-1.6.9-3.1,2-4.5,3.2l-76.4,61.7h0c-9.1,7.4-14.7,18.5-14.7,28.9v220.7c0,16.2,13.2,26.4,29.4,22.6,5.2-1.2,10.2-3.7,14.7-7.3l76.5-61.8c3.5-2.8,6.4-6.2,8.8-9.8,0-.1.2-.2.2-.4.2-.2.3-.5.4-.7.3-.4.5-.9.8-1.4,0,0,0,0,0,0,.2-.3.3-.6.5-.9,0,0,0,0,0,0,1.4-2.8,2.5-5.7,3.1-8.7h0c.1-.6.2-1.2.3-1.8,0,0,0-.2,0-.2,0-.2,0-.5.1-.7,0-.2,0-.5,0-.7,0-.2,0-.4,0-.6,0-.4,0-.8,0-1.2,0-.1,0-.3,0-.4,0-.4,0-.9,0-1.3v-55.1l33-26.6-24.2,116c-1.7,8.1-.3,15.6,4,21.2,4.2,5.6,10.8,8.7,18.5,8.6,5.2,0,10.6-1.6,15.6-4.4,1.9-1.1,3.7-2.3,5.4-3.7l50.9-41.1,2.2,9.7c1.7,7.3,6.2,12.8,12.9,15.5,4.8,1.9,10.2,2.3,15.8,1,2.1-.5,4.2-1.2,6.3-2.1,3-1.3,5.8-3.1,8.3-5.1l41.3-33.4c13.1,17.5,36,25.8,62.1,19.8,12.9-3,25.6-9.3,36.7-18.3l78-66.1,10.9-10.8h0ZM824.5,1055c0,0-.1,0-.2,0-.9,0-1.8-.1-2.7-.1h-.3c-.2,0-.5,0-.8,0-.2,0-.4,0-.5,0-.2,0-.4,0-.7,0-.4,0-.8,0-1.2.1-.2,0-.3,0-.5,0-.3,0-.6,0-.9.1-.1,0-.3,0-.4,0-.4,0-.9.2-1.3.3l-36.8,8.5v-16.2l58.9-47.6c-.8,1.9-1.4,3.9-1.8,5.9l-10.2,48.9c-.2,0-.4,0-.6,0h0Z"/>
          <g>
            <g>
              <polygon class="cls-1" points="737.8 981.6 774.6 1009.8 774.6 1068.6 737.8 1040.4 737.8 981.6"/>
              <path class="cls-23" d="M712.1,1208.1h0c-7.1,1.6-13.6.2-18.2-3.3l36.7,28.2c4.7,3.6,11.1,5,18.2,3.3h0l-36.7-28.2Z"/>
              <polygon class="cls-1" points="774.6 1120.1 737.8 1091.9 737.8 1176.5 774.6 1204.7 774.6 1120.1"/>
              <path class="cls-5" d="M737.8,1176.5h0c0,7.1-2.9,14.2-7.5,19.9-4.7,5.7-11.1,10.1-18.2,11.7l36.7,28.2c7.1-1.6,13.5-6,18.2-11.7s7.5-12.8,7.5-19.9l-36.7-28.2Z"/>
              <polygon class="cls-23" points="778.3 1082.6 737.8 1091.9 774.6 1120.1 815 1110.8 778.3 1082.6 778.3 1082.6"/>
              <path class="cls-25" d="M804.1,1050.8h0c0,7.1-2.9,14.2-7.6,20s-11.1,10.1-18.2,11.8l36.7,28.2c7.1-1.6,13.5-6,18.2-11.8s7.6-12.8,7.6-20l-36.7-28.2Z"/>
              <path class="cls-1" d="M796.5,1034.4c4.7,3.6,7.5,9.3,7.5,16.4l36.7,28.2c0-7.1-2.9-12.8-7.5-16.4l-36.7-28.2Z"/>
              <polygon class="cls-23" points="794.8 968.4 794.8 968.4 737.8 981.6 774.6 1009.8 831.5 996.7 831.5 996.7 794.8 968.4"/>
              <path class="cls-1" d="M855.3,955.4c-1.3-2.8-3.2-5.1-5.5-6.9l-36.7-28.2c2.3,1.8,4.2,4.1,5.5,6.9s2,6,2,9.5l36.7,28.2c0-3.5-.7-6.8-2-9.5Z"/>
              <path class="cls-26" d="M820.6,936.7h0c0,7.1-2.9,14.2-7.6,20s-11.1,10.1-18.2,11.8l36.7,28.2c7.1-1.6,13.5-6,18.2-11.8s7.6-12.9,7.6-20l-36.7-28.2Z"/>
            </g>
            <path class="cls-23" d="M831.5,1000.3c7.9-1.8,15.2-6.6,20.8-13.5s8.6-15,8.6-22.8-.8-7.6-2.3-10.9c-1.5-3.2-3.6-5.8-6.3-7.9l-36.7-28.2h0s0,0,0,0c-5.6-4.3-13-5.6-20.8-3.8l-82.7,19.1c-16.2,3.8-29.5,20-29.5,36.2v220.7c0,7.8,3,14.5,8.6,18.8,0,0,0,0,0,0h0s36.7,28.2,36.7,28.2c5.6,4.3,13,5.6,20.8,3.8,7.9-1.8,15.2-6.6,20.8-13.4,5.5-6.8,8.6-14.9,8.6-22.8v-80.9l36.8-8.5c7.9-1.8,15.3-6.6,20.8-13.4,5.6-6.8,8.6-15,8.6-22.8s-3.1-14.5-8.6-18.8l-36.7-28.2h0s0,0,0,0c-5.6-4.3-13-5.6-20.8-3.8h0v-14.7l53.3-12.3h0ZM741.5,1030.6v-41l29.4,22.6v16.9l-29.4,6.8v-5.2ZM770.9,1205.6c0,5.9-2.3,12-6.5,17.1-4.2,5.1-9.7,8.7-15.6,10.1-5.9,1.4-11.5.3-15.7-2.9l-22.9-17.7c0,0,.1,0,.2,0,.6,0,1.1-.2,1.7-.3h0c.5-.1,1-.2,1.5-.4,0,0,.1,0,.2,0,7.2-2.1,14-6.6,19.1-13,5.2-6.3,8.2-13.8,8.6-21.1,0,0,0-.1,0-.2,0-.5,0-1,0-1.5v-75.7l29.4,22.6v83.1h0ZM778.3,1086.2c.5-.1,1-.2,1.5-.4h0c7.3-2.1,14.1-6.6,19.3-13,5.2-6.4,8.2-13.8,8.6-21.1,0,0,0-.1,0-.2,0-.5,0-1,0-1.5h0c0-.6,0-1.1,0-1.7v-.2l23,17.7c4.2,3.2,6.5,8.2,6.5,14.1s-2.3,12-6.5,17.1c-4.2,5.1-9.7,8.7-15.6,10.1l-38.9,9-22.2-17.1-7.2-5.5,31.6-7.3h0ZM776.1,1005.8l-18.6-14.3-10.8-8.3,48.1-11.1h0c.5-.1,1-.2,1.5-.4,0,0,.2,0,.3,0,.4-.1.8-.2,1.2-.4,0,0,.2,0,.2,0,.4-.1.8-.3,1.3-.5,0,0,0,0,0,0,5.2-2,10.1-5.3,14.2-9.6.1-.1.2-.2.3-.4.2-.3.5-.5.7-.8.7-.8,1.4-1.7,2-2.5.2-.3.4-.6.6-.9,0-.1.2-.3.3-.4,3.4-4.9,5.6-10.2,6.4-15.6,0,0,0,0,0,0,0-.4.1-.8.2-1.3,0,0,0-.2,0-.2,0-.4,0-.8,0-1.2,0-.1,0-.2,0-.3,0-.5,0-1,0-1.5h0c0-.6,0-1.1,0-1.7v-.2l23,17.7c2,1.6,3.6,3.5,4.7,5.9,1.2,2.5,1.7,5.2,1.7,8.2,0,5.9-2.3,12-6.5,17.1-4.2,5.2-9.7,8.7-15.6,10.1l-55.5,12.8h0Z"/>
            <path class="cls-4" d="M794.8,920.6l-82.7,19.1c-12.2,2.8-22.1,15-22.1,27.2v220.7c0,12.2,9.9,19.8,22.1,17s22.1-15,22.1-27.2v-88.3l44.1-10.2c12.2-2.8,22.1-15,22.1-27.2s-9.9-19.8-22.1-17l-44.1,10.2v-66.2l60.7-14c12.2-2.8,22.1-15,22.1-27.2s-9.9-19.8-22.1-17h0Z"/>
            <g>
              <path class="cls-2" d="M808.7,922.3l-19.4,16.1,21.1,16.2c4-4.9,6.5-11,6.5-17.1s-3.2-12.4-8.2-15.3h0Z"/>
              <path class="cls-32" d="M789.3,938.4l19.4-16.1c-3.8-2.2-8.6-2.9-13.9-1.7l-82.7,19.1c-6.1,1.4-11.6,5.2-15.6,10.1l10.1,7.8,82.7-19.1h0Z"/>
              <path class="cls-21" d="M706.6,957.5l27.6,21.2,60.7-14c6.1-1.4,11.6-5.2,15.6-10.1l-21.1-16.2-82.7,19.1Z"/>
              <path class="cls-2" d="M793.9,1068.8c4-4.9,6.5-11,6.5-17.1s-3.2-12.4-8.2-15.3l-19.4,16.1,21.1,16.2Z"/>
              <path class="cls-32" d="M772.8,1052.6l19.4-16.1c-3.8-2.2-8.6-2.9-13.9-1.7l-44.1,10.2-27.6,22.9,66.2-15.3h0Z"/>
              <path class="cls-21" d="M706.6,1067.8l27.6,21.2,44.1-10.2c6.1-1.4,11.6-5.2,15.6-10.1l-21.1-16.2-66.2,15.3h0Z"/>
              <path class="cls-2" d="M706.6,1178.2l21.1,16.2c4-4.9,6.5-11,6.5-17.1v-88.3l-27.6-21.2v110.3h0Z"/>
              <polygon class="cls-2" points="706.6 1067.8 734.2 1044.9 734.2 978.7 706.6 957.5 706.6 1067.8"/>
              <path class="cls-21" d="M695,1200.2c4,4.1,10.2,5.8,17.2,4.2,6.1-1.4,11.6-5.2,15.6-10.1l-21.1-16.2-11.6,22.1h0Z"/>
              <path class="cls-4" d="M706.6,1067.8v-110.3l-10.1-7.8c-4,4.9-6.5,11-6.5,17.1v220.7c0,5.3,1.8,9.7,4.9,12.7l11.6-22.1v-110.3h0Z"/>
            </g>
          </g>
          <g>
            <g>
              <polygon class="cls-1" points="903.6 1038.6 940.3 1066.9 933.1 1101.6 896.4 1073.4 903.6 1038.6"/>
              <polygon class="cls-23" points="885.1 1127.4 922.1 1118.9 958.8 1147.1 921.9 1155.7 885.1 1127.4"/>
              <path class="cls-23" d="M849.8,1176.4c-5,0-9.3-1.4-12.7-4l36.7,28.2c3.4,2.6,7.7,4.1,12.7,4,1.8,0,3.7-.3,5.5-.7l-36.7-28.2c-1.8.4-3.7.7-5.5.7Z"/>
              <polygon class="cls-1" points="917.2 1177.9 921.9 1155.7 885.1 1127.4 880.5 1149.6 917.2 1177.9 917.2 1177.9"/>
              <path class="cls-24" d="M880.5,1149.6c-1.1,5.3-3.6,10.2-6.9,14.3-.7.8-1.4,1.7-2.2,2.4-4.5,4.6-10.1,7.9-16,9.3l36.7,28.2h0c5.9-1.4,11.5-4.7,16-9.3.8-.8,1.5-1.6,2.2-2.4,3.4-4.1,5.8-9.1,6.9-14.3l-36.7-28.2Z"/>
              <path class="cls-23" d="M951.9,1153.4h0c-6.9,1.6-13.5.3-18.2-3.4l36.7,28.2c4.8,3.7,11.3,5,18.2,3.4h0l-36.7-28.2Z"/>
              <path class="cls-30" d="M1013.8,1144.6l-36.7-28.2c1.6,6.9,0,14.4-3.9,21-.5.8-.9,1.5-1.4,2.2-.5.7-1,1.4-1.6,2.1-3.4,4.2-7.7,7.7-12.7,9.9-1.9.8-3.7,1.4-5.5,1.8l36.7,28.2c1.8-.4,3.7-1,5.5-1.8,5-2.3,9.3-5.8,12.7-9.9.6-.7,1.1-1.4,1.6-2.1.5-.7,1-1.5,1.4-2.2,3.9-6.6,5.5-14.1,3.9-21Z"/>
              <path class="cls-1" d="M1013.8,1144.6l-48.2-209.5c-1.1-4.7-3.6-8.5-7-11.1l-36.7-28.2c3.4,2.6,5.9,6.4,7,11.1l48.2,209.5,36.7,28.2h0Z"/>
            </g>
            <path class="cls-23" d="M1017.3,1143h0l-48.2-209.5c-1.2-5.2-4-9.6-8-12.7l-35.7-27.4c-5.4-4.8-13.2-6.6-21.9-4.7-14,3.2-25.8,15.5-28.8,29.8l-48.3,231.8c-2.2,10.5,1,19.6,7.7,25,0,.1.2.2.3.3h0s0,0,0,0l36.7,28.2c4,3.1,9,4.6,14.5,4.6,2.1,0,4.2-.3,6.3-.8,6.6-1.5,13.1-5.3,18.3-10.6.8-.9,1.7-1.8,2.5-2.8,4-4.9,6.7-10.6,7.9-16.4l4-19.2,10.2-2.4,32.7,25.2c5.5,4.2,13.1,5.6,20.8,3.8,2.1-.5,4.1-1.2,6.3-2.1,0,0,0,0,0,0,5.5-2.5,10.5-6.4,14.5-11.3.7-.8,1.3-1.6,1.8-2.4.5-.8,1.1-1.6,1.6-2.5,4.6-7.8,6.2-16.4,4.5-23.9h0ZM903,1058.8l.6-3,2.7,11.6-5.3,1.2,2-9.8h0ZM913.6,1177.9c-.9,4.4-3,8.6-6,12.3-.6.7-1.2,1.4-1.9,2.1-3.9,4-8.8,6.8-13.7,8-1.6.4-3.2.6-4.7.6-4.1,0-7.9-1.2-10.9-3.4l-23-17.7c0,0,.1,0,.2,0,.2,0,.4,0,.6-.1.3,0,.6-.1.8-.2,0,0,.2,0,.3,0,.2,0,.5-.1.8-.2,0,0,0,0,0,0,12.4-3.2,23-13.6,27-26.1,0-.1,0-.2,0-.3,0-.2.1-.5.2-.7,0-.2.1-.4.2-.6,0-.2,0-.3.1-.5,0-.4.2-.8.3-1.2l3.2-15.3,30.5,23.5-4.2,20.1h0ZM923.4,1151.6l-29.4-22.6,25.1-5.8,4,17.3c.9,3.9,2.7,7.3,5.1,10l-4.8,1.1h0ZM1006.8,1164.2c-.4.7-.8,1.3-1.2,1.9-.4.6-.9,1.2-1.4,1.8-3,3.7-6.7,6.6-10.8,8.5-1.7.7-3.2,1.2-4.8,1.6-5.8,1.3-11.5.3-15.6-2.9l-22.9-17.6c0,0,.2,0,.3,0,.2,0,.3,0,.4,0,.3,0,.6-.1.9-.2,0,0,.1,0,.2,0h0c.5-.1.9-.2,1.4-.3.2,0,.3,0,.5-.1.2,0,.5-.2.8-.2.5-.2,1-.3,1.4-.5,0,0,0,0,.2,0,.3-.1.6-.2.9-.4.4-.2.7-.3,1.1-.5,0,0,0,0,0,0,0,0,.2,0,.3-.1,7.5-3.4,13.9-9.3,18-16.8,2.9-5.2,4.5-10.6,4.7-15.9h0c0-.5,0-.9,0-1.4v-.3c0-.4,0-.8,0-1.1,0-.1,0-.2,0-.4,0-.4,0-.7,0-1.1,0-.1,0-.3,0-.4,0-.4,0-.8-.2-1.1,0-.1,0-.2,0-.3,0-.5-.2-.9-.3-1.4h0l-47.2-204.8,22.5,17.3c3,2.3,5.1,5.6,6,9.5l48.2,209.5c1.3,5.7,0,12.1-3.4,18h0Z"/>
            <path class="cls-4" d="M925.2,908.5c-2.2-9.6-11.2-14.8-21.6-12.4-10.4,2.4-19.3,11.7-21.6,22.3l-48.3,231.8c-1.3,6.2,0,11.9,3,15.9,3,4.1,7.9,6.5,13.9,6.4,1.6,0,3.2-.2,4.7-.6,4.3-1,8.4-3.2,11.9-6.2,4.8-4.2,8.3-9.8,9.7-16.1l5.2-25.2,42.9-9.9,5.2,22.8c1.3,5.7,4.9,9.7,9.7,11.6,3.5,1.4,7.6,1.7,11.9.8,1.6-.4,3.2-.9,4.7-1.6,6-2.7,10.8-7.4,13.9-12.8s4.3-11.7,3-17.3l-48.3-209.5h0ZM891.8,1078.1l11.8-56.7,11.8,51.2-23.6,5.4h0Z"/>
            <g>
              <polygon class="cls-3" points="891.8 1078.1 915.4 1072.6 915.4 1072.6 903.6 1021.4 891.8 1078.1 891.8 1078.1"/>
              <path class="cls-2" d="M937.3,1084.1h0l9,39.3,21.1,16.2c1.1-1.4,2.1-2.8,3-4.4,3-5.5,4.3-11.7,3-17.3l-48.3-209.5c-1.2-5.4-4.6-9.4-9.2-11.4l-17.9,16.9,39.2,170.2h0Z"/>
              <path class="cls-4" d="M937.3,1084.1l-12.2,30.4h0l5.3,22.9c.8,3.6,2.6,6.6,5.1,8.7l10.9-22.7-9-39.3h0Z"/>
              <path class="cls-21" d="M935.4,1146.2c1.3,1.2,2.9,2.1,4.5,2.8,3.5,1.4,7.5,1.7,11.8.8h.3c1.5-.4,3-.9,4.6-1.6,4.3-1.9,8-4.9,10.9-8.5l-21.1-16.2-10.9,22.7h0Z"/>
              <polygon class="cls-4" points="903.6 1021.4 915.4 1072.6 937.3 1084.1 898.1 913.9 903.6 1021.4"/>
              <polygon class="cls-21" points="925.1 1114.5 937.3 1084.1 937.3 1084.1 858.9 1102.2 882.2 1124.4 882.2 1124.4 925.1 1114.5 925.1 1114.5 925.1 1114.5"/>
              <polygon class="cls-32" points="915.4 1072.6 915.4 1072.6 891.8 1078.1 891.8 1078.1 858.9 1102.2 858.9 1102.2 937.3 1084.1 915.4 1072.6"/>
              <polygon class="cls-2" points="903.6 1021.4 898.1 913.9 858.9 1102.2 891.8 1078.1 903.6 1021.4"/>
              <path class="cls-32" d="M916,897c-3.6-1.6-7.8-2-12.4-1-6,1.4-11.6,5.1-15.6,10.1l10.1,7.8,17.9-16.9h0Z"/>
              <path class="cls-2" d="M849.8,1145.7l21.1,16.2c2.9-3.5,5-7.7,5.9-12.2l5.3-25.3-23.3-22.2-9,43.5h0Z"/>
              <path class="cls-4" d="M858.9,1102.2h0l39.2-188.3-10.1-7.8c-2.9,3.6-5,7.8-6,12.3l-48.3,231.8c-1.3,6.2,0,11.9,3,15.9.4.6.9,1.1,1.4,1.6l11.6-22.1,9-43.5h0Z"/>
              <path class="cls-21" d="M838.2,1167.8c3,3.1,7.3,4.9,12.4,4.8,1.5,0,3-.2,4.6-.5h.3c4.2-1.1,8.3-3.3,11.8-6.3,1.3-1.2,2.6-2.4,3.7-3.8l-21.1-16.2-11.6,22.1h0Z"/>
            </g>
          </g>
          <g>
            <g>
              <path class="cls-23" d="M1106.8,932.1c5.1-1.2,9.7-.2,13,2.4l-36.7-28.2c-3.3-2.6-7.9-3.6-13-2.4l36.7,28.2h0Z"/>
              <path class="cls-1" d="M1088.4,954.7l-36.7-28.2h0v16.9c0,5,2,9.2,5.4,11.8l36.7,28.2c-3.4-2.6-5.4-6.8-5.4-11.8v-16.9Z"/>
              <path class="cls-31" d="M1070.1,903.8c-5.1,1.2-9.7,4.3-13,8.4-3.3,4.1-5.4,9.2-5.4,14.2l36.7,28.2h0c0-5.1,2.1-10.1,5.4-14.2,3.3-4.1,7.9-7.2,13-8.4l-36.7-28.2Z"/>
              <path class="cls-23" d="M1114.2,944.7h0c-7.1,1.6-13.5.2-18.2-3.3l36.7,28.2c4.7,3.6,11.1,5,18.2,3.3h0l-36.7-28.2Z"/>
              <path class="cls-29" d="M1139.9,913h0c0,7.1-2.9,14.2-7.6,19.9s-11.1,10.1-18.2,11.7l36.7,28.2c7.1-1.6,13.6-6,18.2-11.7,4.7-5.7,7.6-12.8,7.6-19.9l-36.7-28.2Z"/>
              <path class="cls-1" d="M1156.2,889.7l-36.7-28.2c12.7,9.7,20.5,25.4,20.5,44.7v6.9l36.7,28.2v-6.9c0-19.3-7.8-34.9-20.5-44.7Z"/>
              <path class="cls-23" d="M1083.1,1024.4c-1.2-.9-2.5-1.6-4-2.1l-43.3-14.3c-5.6-1.9-10.6-4.6-15.1-8l36.7,28.2c4.4,3.4,9.5,6.1,15.1,8l43.3,14.3c1.5.5,2.8,1.2,4,2.1l-36.7-28.2h0Z"/>
              <path class="cls-1" d="M1088.3,1089.9v-6.9c0-7.1-2.9-12.9-7.5-16.4l-36.7-28.2c4.7,3.6,7.5,9.3,7.5,16.4v6.9c0,5.1,2.1,9.2,5.4,11.7l36.7,28.2c-3.3-2.6-5.4-6.7-5.4-11.7Z"/>
              <path class="cls-1" d="M1156.2,1007.9l-36.7-28.2c12.9,10,20.5,25.9,20.5,44.7v16.9l36.7,28.2v-16.9c0-18.8-7.6-34.8-20.5-44.7Z"/>
              <path class="cls-27" d="M1139.9,1041.2h0c0,19.3-7.8,38.6-20.5,54.1-12.7,15.6-30.1,27.4-49.4,31.9l36.7,28.2c19.2-4.4,36.7-16.3,49.4-31.9s20.5-34.8,20.5-54.1l-36.7-28.2Z"/>
              <path class="cls-23" d="M1070.1,1127.2h0c-19.3,4.4-36.7.7-49.4-9.1l36.7,28.2c12.7,9.7,30.1,13.5,49.4,9.1h0l-36.7-28.2Z"/>
            </g>
            <path class="cls-23" d="M1094.4,945.3l35.7,27.5c5.6,4.3,12.9,5.6,20.8,3.8s15.2-6.6,20.8-13.4c5.6-6.8,8.7-14.9,8.7-22.8v-6.9c0-19.6-7.7-36.3-21.6-47l-36.6-28.2c-13.3-10.3-31.8-14.4-52.1-9.7-40.6,9.4-73.5,50-73.5,90.5v16.9c0,19.7,7.9,36.5,21.5,47,0,0,0,0,.1.1l36.7,28.3c4.7,3.6,10.1,6.4,15.9,8.4l14,4.7v9.5c0,2.9-.9,5.9-2.4,8.5l-35.7-27.4c0,0-.2-.2-.3-.2-5.3-3.9-12.5-5.4-20.5-3.6-16.2,3.7-29.4,20-29.4,36.2v6.9c0,20.2,8.1,36.5,21.3,46.8,0,0,.2.2.2.2l36.7,28.2c13.9,10.7,32.4,14.1,52,9.6,19.6-4.5,38.1-16.4,52-33.6,13.9-17.1,21.6-37.4,21.6-57v-16.9c0-19.4-7.9-36.5-21.6-47.1l-36.7-28.2s0,0-.1,0c-4.7-3.6-10-6.4-15.8-8.3l-14-4.7v-9.5c0-2.9.8-5.8,2.4-8.5h0ZM1112.5,948.7c.6,0,1.1-.2,1.7-.3.5-.1,1-.2,1.5-.4,0,0,.2,0,.3,0,.4-.1.8-.2,1.2-.4,0,0,.1,0,.2,0,6.7-2.2,12.8-6.6,17.7-12.5,4.8-5.9,7.8-12.8,8.5-19.6,0,0,0-.1,0-.2,0-.4,0-.8,0-1.1,0-.1,0-.3,0-.4,0-.3,0-.7,0-1s0-.3,0-.5v-6.9c0-.6,0-1.2,0-1.8,0-.2,0-.3,0-.5,0-.4,0-.8,0-1.3,0-.2,0-.3,0-.5,0-.5,0-.9,0-1.4,0-.1,0-.2,0-.3-.5-6.2-1.8-12-3.8-17.4l14,10.7c12.5,9.6,19.4,24.7,19.4,42.3v6.9c0,5.9-2.3,12-6.5,17.1-4.2,5.1-9.7,8.7-15.6,10.1-5.9,1.4-11.4.3-15.6-2.8l-23-17.7c0,0,.1,0,.2,0h0ZM1074.3,1032.6c-5.2-1.7-10-4.3-14.3-7.6l-11-8.5,28.2,9.4c.1,0,.3,0,.4.2.1,0,.3,0,.4.2,0,0,.2,0,.3.1.2,0,.3.2.5.2,0,0,.2,0,.2.1.2,0,.4.2.5.3,0,0,.1,0,.2.1.2.1.4.2.5.4,2.5,1.9,4,4.9,4.3,8.4l-10.4-3.4h0ZM1084.7,955.6v5.3l-21.9-7.3c-1.2-.4-2.2-.9-3.1-1.6h0c-.2-.2-.4-.3-.6-.5,0,0-.2-.2-.3-.3,0,0-.2-.2-.2-.2-.1-.1-.2-.2-.3-.3,0,0,0,0-.1-.1-1.1-1.3-1.9-2.8-2.4-4.5h0c0-.4-.2-.8-.2-1.1,0,0,0-.2,0-.3,0-.1,0-.3,0-.4,0-.2,0-.3,0-.5,0-.1,0-.2,0-.3,0-.3,0-.6,0-.9v-16.9c0-.2,0-.5,0-.8h0c0-.3,0-.5,0-.8h0c.8-7.6,7.1-14.8,14.7-16.6.5-.1,1-.2,1.5-.3h0c2.5-.3,4.7,0,6.7.9,0,0,0,0,0,0,.2,0,.3.2.5.2.1,0,.3.2.4.2,0,0,0,0,.1,0,.4.2.7.5,1.1.7h0c2.6,2.1,4.2,5.4,4.2,9.4v6.9c0,5.8,1.7,10.9,4.8,15-3.1,4.6-4.8,9.8-4.8,14.9h0ZM1077,1068.7c-2.1,1.6-4.4,2.8-6.9,3.3-7.6,1.8-13.9-2.6-14.7-9.7h0c0-.3,0-.5,0-.7,0,0,0,0,0-.1,0-.2,0-.5,0-.7v-6.9c0-.6,0-1.1,0-1.7v-.2l21.7,16.7h0ZM1118.1,1101.9c.1-.2.3-.3.4-.5.3-.3.6-.7.9-1,1.8-2,3.5-4.1,5.1-6.3,11.1-14.7,17.6-31.5,18.9-48h0c0-.6,0-1.2,0-1.7,0,0,0-.2,0-.3,0-.5,0-1,0-1.5,0-.1,0-.2,0-.4,0-.6,0-1.2,0-1.9v-16.9c0-.7,0-1.4,0-2.2,0-.2,0-.4,0-.6,0-.6,0-1.3,0-1.9,0-.3,0-.6,0-1,0-.3,0-.6,0-.9-.5-5.9-1.8-11.5-3.8-16.7l14,10.8c12.3,9.5,19.4,24.9,19.4,42.4v16.9c0,17.7-6.9,35.9-19.4,51.3-12.5,15.4-29.1,26.1-46.8,30.2-17.7,4.1-34.3,1-46.8-8.6l-14-10.8c5.9.7,12,.5,18.3-.4,0,0,.1,0,.2,0,.5,0,1-.2,1.5-.2.1,0,.3,0,.4,0,.5,0,.9-.2,1.4-.3.1,0,.3,0,.4,0,.6-.1,1.2-.2,1.8-.4,1.3-.3,2.5-.6,3.8-1,0,0,0,0,0,0,16.4-4.6,31.8-14.4,44.2-28.1h0Z"/>
            <path class="cls-4" d="M1070,856c-36.5,8.4-66.2,45-66.2,81.5v16.9c0,23.9,12.9,43,33.7,49.9l43.3,14.3c6.9,2.3,11.2,8.7,11.2,16.6v16.9c0,12.2-9.9,24.3-22.1,27.2-12.2,2.8-22.1-4.8-22.1-17v-6.9c0-12.2-9.9-19.8-22.1-17-12.2,2.8-22.1,15-22.1,27.2v6.9c0,36.5,29.7,59.3,66.2,50.9,36.5-8.4,66.2-45,66.2-81.5v-16.9c0-23.9-12.9-43-33.7-49.9l-43.3-14.3c-6.9-2.3-11.2-8.7-11.2-16.6v-16.9c0-12.2,9.9-24.3,22.1-27.2,12.2-2.8,22.1,4.8,22.1,17v6.9c0,12.2,9.9,19.8,22.1,17,12.2-2.8,22.1-15,22.1-27.2v-6.9c0-36.5-29.7-59.3-66.2-50.9h0Z"/>
            <g>
              <path class="cls-2" d="M1116.8,864.6l-21.1,14.9c8,6.1,12.9,16,12.9,28.2v6.9l21.1,16.2c4-4.9,6.5-11,6.5-17.1v-6.9c0-18.2-7.4-33.1-19.4-42.3h0Z"/>
              <path class="cls-21" d="M1097,936.8c4.1,4.1,10.2,5.8,17.2,4.2,6.1-1.4,11.6-5.2,15.6-10.1l-21.1-16.2-11.6,22.1h0Z"/>
              <path class="cls-32" d="M1033.3,894c8-9.8,19-17.3,31.2-20.1s23.2-.4,31.2,5.7l21.1-14.9c-12-9.2-28.5-12.8-46.8-8.6-18.2,4.2-34.8,15.5-46.8,30.2l10.1,7.7h0Z"/>
              <path class="cls-21" d="M1095.7,1077.1c-8,9.8-19,17.3-31.2,20.1s-23.2.4-31.2-5.7l-10.1,23.4c12,9.2,28.5,12.8,46.8,8.6,18.2-4.2,34.8-15.5,46.8-30.2l-21.1-16.2h0Z"/>
              <path class="cls-4" d="M1108.7,907.8c0-12.2-4.9-22.1-12.9-28.2l-10.1,23.5c4,3.1,6.5,8,6.5,14.1v6.9c0,5.3,1.8,9.7,4.9,12.7l11.6-22.1v-6.9h0Z"/>
              <path class="cls-21" d="M1064.5,873.9c-12.2,2.8-23.2,10.3-31.2,20.1l21.1,16.2c4-4.9,9.5-8.7,15.6-10.1,6.1-1.4,11.6-.2,15.6,2.9l10.1-23.5c-8-6.1-19-8.5-31.2-5.7Z"/>
              <path class="cls-32" d="M1064.5,1097.3c12.2-2.8,23.2-10.3,31.2-20.1l-10.1-7.8c-4,4.9-9.5,8.7-15.6,10.1-6.1,1.4-11.6.2-15.6-2.9l-21.1,15c8,6.1,19,8.5,31.2,5.7h0Z"/>
              <path class="cls-2" d="M1020.4,1063.3c0,12.2,4.9,22.1,12.9,28.2l21.1-15c-4-3.1-6.5-8-6.5-14.1v-6.9c0-6.9-3.2-12.4-8.2-15.3l-19.4,16.1v6.9h0Z"/>
              <path class="cls-2" d="M1033.3,894c-8,9.8-12.9,22-12.9,34.2v16.9c0,8,2.2,15.1,6,20.9,3.9,5.8,9.5,10.1,16.5,12.4l43.3,14.3c6.9,2.3,12.6,6.6,16.5,12.4,3.9,5.8,6,12.9,6,20.9v16.9c0,12.2-4.9,24.4-12.9,34.2l21.1,16.2h0c12-14.8,19.4-33,19.4-51.3v-16.9c0-3-.2-5.9-.6-8.7-.2-1.1-.3-2.2-.6-3.3,0-.3-.1-.6-.2-.9,0-.1,0-.3,0-.4-1.5-6.7-4.1-12.8-7.6-18-5.8-8.6-14.3-15.1-24.7-18.6l-43.3-14.3c-2.9-1-5.3-2.6-7.2-4.8-.9-1.1-1.7-2.3-2.4-3.7-1.1-2.2-1.6-4.8-1.7-7.6,0-.2,0-.4,0-.6h0v-16.9c0-6.1,2.5-12.2,6.5-17.1l-21.1-16.2h0Z"/>
              <path class="cls-32" d="M1039.8,1040.3c-3.8-2.2-8.6-2.9-13.9-1.7-6.1,1.4-11.6,5.2-15.6,10.1l10.1,7.8,19.4-16.1h0Z"/>
              <path class="cls-4" d="M1020.4,1063.3v-6.9l-10.1-7.8c-4,4.9-6.5,11-6.5,17.1v6.9c0,18.2,7.4,33.1,19.4,42.3l10.1-23.4c-8-6.1-12.9-16-12.9-28.2h0Z"/>
              <path class="cls-4" d="M1095.7,1077.1c8-9.8,12.9-22,12.9-34.2v-16.9c0-8-2.2-15.1-6-20.9-3.9-5.8-9.5-10.1-16.5-12.4l-43.3-14.3c-6.9-2.3-12.6-6.6-16.5-12.4-3.9-5.8-6-12.9-6-20.9v-16.9c0-12.2,4.9-24.4,12.9-34.2l-10.1-7.7h0c-12,14.8-19.4,33-19.4,51.3v16.9c0,3,.2,5.9.6,8.7.2,1.1.3,2.2.6,3.3,0,.3.1.6.2.9,0,0,0,.2,0,.2,1.5,6.7,4.1,12.9,7.7,18.2,5.8,8.6,14.3,15.1,24.7,18.6l43.3,14.3c2.9,1,5.3,2.6,7.2,4.8.9,1.1,1.7,2.3,2.4,3.7,1.1,2.2,1.6,4.8,1.7,7.6,0,.2,0,.4,0,.6h0v16.9c0,6.1-2.5,12.2-6.5,17.1l10.1,7.8h0Z"/>
            </g>
          </g>
          <g>
            <g>
              <path class="cls-23" d="M1199.3,877.1l-18.4,4.2c-7.1,1.6-13.5.2-18.2-3.3l36.7,28.2c4.7,3.6,11.1,5,18.2,3.3l18.4-4.2-36.7-28.2Z"/>
              <path class="cls-1" d="M1324.2,841l-36.7-28.2c4.7,3.6,7.5,9.3,7.5,16.4l36.7,28.2c0-7.1-2.9-12.9-7.5-16.4Z"/>
              <polygon class="cls-23" points="1269.2 860.9 1269.2 860.9 1250.8 865.2 1287.6 893.4 1305.9 889.2 1305.9 889.2 1269.2 860.9"/>
              <path class="cls-28" d="M1295,829.2h0c0,7.1-2.9,14.2-7.5,20s-11.1,10.1-18.2,11.8l36.7,28.2c7.1-1.7,13.6-6,18.2-11.8s7.5-12.9,7.5-20l-36.7-28.2Z"/>
              <path class="cls-23" d="M1225.1,1091.7c-7.1,1.6-13.6.2-18.2-3.3l36.7,28.2c4.7,3.6,11.1,5,18.2,3.3l-36.7-28.2h0Z"/>
              <polygon class="cls-1" points="1287.6 893.4 1250.8 865.2 1250.8 1060.1 1287.6 1088.3 1287.6 893.4"/>
              <path class="cls-9" d="M1250.8,1060.1h0c0,7.1-2.9,14.2-7.5,19.9-4.7,5.7-11.1,10.1-18.2,11.7l36.7,28.2c7.1-1.6,13.5-6,18.2-11.7,4.7-5.7,7.5-12.8,7.5-19.9l-36.7-28.2Z"/>
            </g>
            <path class="cls-23" d="M1326.8,837.8l-36.7-28.2c-.1,0-.2-.2-.4-.2-5.3-3.9-12.5-5.4-20.5-3.6l-88.2,20.4c-16.2,3.7-29.4,20-29.4,36.2s3.2,14.6,8.4,18.7c0,0,.1.1.2.2,0,0,0,0,0,0l35.4,27.2v164.4c0,7.8,3.1,14.5,8.6,18.8,0,0,0,0,0,0h0s36.7,28.2,36.7,28.2c5.6,4.3,13,5.6,20.8,3.8,7.9-1.8,15.2-6.6,20.8-13.4,5.6-6.8,8.6-14.9,8.6-22.8v-191.2l14.7-3.4c7.9-1.8,15.3-6.6,20.8-13.5,5.6-6.8,8.6-15,8.6-22.8s-3.1-14.5-8.6-18.8h0ZM1195.7,898l-16.5-12.7s0,0,.1,0c.6,0,1.1-.2,1.7-.3l14.7-3.4v16.4h0ZM1283.9,1089.2c0,5.9-2.3,12-6.4,17.1-4.2,5.1-9.7,8.7-15.6,10.1-5.9,1.4-11.5.3-15.7-2.9l-22.9-17.7c0,0,.1,0,.2,0,.6,0,1.1-.2,1.7-.3.5-.1,1-.2,1.5-.4,0,0,.1,0,.2,0,7.2-2.1,14-6.6,19.1-13s8.2-13.8,8.6-21.1c0,0,0-.1,0-.2,0-.5,0-1,0-1.5v-186l29.4,22.6v193.4h0ZM1321.6,875.4c-4.2,5.2-9.7,8.7-15.6,10.1l-16.8,3.9-29.4-22.6,9.5-2.2c.5-.1,1-.2,1.5-.4,0,0,.1,0,.2,0,7.2-2.1,14-6.7,19.2-13,4.8-6,7.8-12.8,8.5-19.7h0c0-.5,0-.9,0-1.3,0,0,0-.2,0-.2,0-.5,0-1,0-1.5h0c0-.6,0-1.1,0-1.7v-.2l23,17.7c4.2,3.2,6.4,8.2,6.4,14.1s-2.3,12-6.5,17.1h0Z"/>
            <path class="cls-4" d="M1269.2,813.1l-88.3,20.4c-12.2,2.8-22.1,15-22.1,27.2s9.9,19.8,22.1,17l22.1-5.1v198.6c0,12.2,9.9,19.8,22.1,17s22.1-15,22.1-27.2v-198.6l22.1-5.1c12.2-2.8,22.1-15,22.1-27.2s-9.9-19.8-22.1-17h0Z"/>
            <g>
              <path class="cls-2" d="M1283.1,814.8l-19.4,16.1,21.1,16.2c4-4.9,6.5-11,6.5-17.1s-3.2-12.4-8.2-15.3h0Z"/>
              <path class="cls-32" d="M1219.6,841.1l44.1-10.2,19.4-16.1c-3.8-2.2-8.6-2.9-13.9-1.7l-88.3,20.4c-6.1,1.4-11.6,5.2-15.6,10.1l10.1,7.8,44.1-10.2Z"/>
              <path class="cls-21" d="M1219.6,841.1l27.6,21.2,22.1-5.1c6.1-1.4,11.6-5.2,15.6-10.1l-21.1-16.2-44.1,10.2h0Z"/>
              <path class="cls-2" d="M1219.6,1061.7l21.1,16.2c4-4.9,6.5-11,6.5-17.1v-198.6l-27.6-21.2v220.6Z"/>
              <path class="cls-21" d="M1207.9,1083.8c4.1,4.1,10.2,5.8,17.2,4.2,6.1-1.4,11.6-5.2,15.6-10.1l-21.1-16.2-11.6,22.1h0Z"/>
              <path class="cls-4" d="M1219.6,841.1l-16.6,31.4v198.6c0,5.3,1.8,9.7,4.9,12.7l11.6-22.1v-220.7h0Z"/>
              <path class="cls-21" d="M1175.5,851.3l-11.6,22.1c4.1,4.1,10.2,5.8,17.2,4.2l22.1-5.1,16.6-31.4-44.1,10.2h0Z"/>
              <path class="cls-4" d="M1165.4,843.5c-4,4.9-6.5,11-6.5,17.1s1.8,9.7,4.9,12.7l11.6-22.1-10.1-7.8h0Z"/>
            </g>
          </g>
        </g>
        <g>
          <path class="cls-22" d="M2361.2,751.4c0-.1-.1-.2-.1-.3-.1-.3-.3-.6-.4-.9h0c0-.1-.1-.3-.2-.4-2.1-4-5.2-7-9.1-9,0,0,0,0,0,0-.4-.2-.7-.3-1.1-.5,0,0-.1,0-.1,0-.3-.1-.6-.3-1-.4-.1,0-.2,0-.3-.1-.3,0-.6-.2-.9-.3-.2,0-.4-.1-.6-.2-.2,0-.4-.1-.6-.2-.4-.1-.9-.2-1.3-.3-2.4-.5-4.9-.6-7.5-.4-3.9.3-7.9,1.4-11.7,3.3-1.2.6-2.4,1.2-3.6,2-.4.2-.8.5-1.2.8-.2,0-.3.2-.5.3-.2.2-.5.3-.7.5-.2.1-.4.3-.6.4-.2.1-.3.2-.5.4-.2.2-.5.4-.8.6l-49.1,39.7-.7-1.4-5.7-11.7v-.3c-.2-.2-.3-.3-.4-.5-.1-.2-.2-.4-.3-.5-.1-.2-.2-.4-.4-.6-.1-.2-.2-.4-.3-.6-.1-.2-.2-.3-.4-.5-.1-.2-.3-.4-.4-.6-.1-.2-.2-.3-.3-.4-.2-.2-.3-.4-.5-.6-.1-.1-.2-.2-.3-.3-.2-.2-.4-.4-.6-.6,0,0-.2-.2-.3-.3-.2-.2-.4-.4-.6-.6,0,0-.2-.1-.2-.2-.2-.2-.5-.4-.7-.6,0,0-.1-.1-.2-.2-.3-.2-.5-.4-.8-.6,0,0-.1,0-.2-.1-.3-.2-.6-.4-.9-.6,0,0-.1,0-.2,0-.3-.2-.6-.4-.9-.5,0,0-.1,0-.2,0-.3-.2-.6-.3-1-.5,0,0-.1,0-.2,0-.3-.2-.6-.3-1-.4-.1,0-.2,0-.3-.1-.3-.1-.6-.2-.9-.3-.1,0-.3,0-.4-.1-.3,0-.6-.2-.9-.3-.2,0-.4-.1-.6-.2-.2,0-.4-.1-.7-.2-.4,0-.9-.2-1.4-.3-5.3-.8-10.9,0-16.4,2.2-2.2.9-4.4,2.1-6.4,3.5,0,0,0,0,0,0-.5.3-.9.6-1.4,1-.1,0-.3.2-.4.3-.4.3-.7.5-1,.8,0,0,0,0-.1,0l-37.9,30.6c-.2-.2-.4-.4-.6-.5-.4-.3-.7-.6-1.1-.9-.2-.2-.4-.3-.6-.5-.4-.4-.9-.7-1.3-1,0,0-.2-.1-.3-.2-.6-.4-1.1-.9-1.7-1.3,0,0-.2-.1-.3-.2-12.6-8.8-29.3-12.4-47.6-8.9-.2,0-.4,0-.6.1-.8.2-1.6.3-2.5.5-.8.2-1.5.4-2.2.5-.2,0-.4,0-.6.2-.6.2-1.2.3-1.8.5-.1,0-.3,0-.4.1-9.8,2.9-19.1,7.6-27.5,13.7-.1,0-.2.2-.3.2-.5.4-1.1.8-1.6,1.2-.2.1-.4.3-.6.4-.5.4-1,.8-1.5,1.2-.1,0-.2.2-.3.2l-67.8,54.8v-19.8c0-.5,0-1,0-1.5,0-.3,0-.6,0-1,0-.2,0-.4,0-.5,0-.4,0-.8-.2-1.1,0,0,0-.2,0-.3,0-.4-.1-.8-.2-1.2,0,0,0-.2,0-.2,0-.4-.2-.8-.3-1.1,0,0,0-.2,0-.3,0-.3-.2-.7-.3-1,0,0,0-.2,0-.3-.1-.3-.2-.7-.4-1,0,0,0-.2-.1-.3-.1-.3-.3-.6-.4-1,0,0,0-.2-.1-.3,0-.2-.1-.3-.2-.5-2.3-4.6-5.9-8-10.4-10,0,0-.2,0-.3-.1-.3-.1-.5-.2-.8-.3-.1,0-.2,0-.4-.1-.3-.1-.7-.2-1-.3-.2,0-.4-.1-.6-.2-.1,0-.3,0-.4-.1-.2,0-.5-.1-.7-.2,0,0-.2,0-.2,0-.9-.2-1.8-.3-2.7-.5,0,0-.1,0-.2,0-.9,0-1.8-.1-2.7-.1h-.3c-.3,0-.5,0-.8,0-.2,0-.4,0-.6,0-.2,0-.4,0-.7,0-.4,0-.8,0-1.2.1-.2,0-.3,0-.5,0-.3,0-.6,0-.9.1-.1,0-.3,0-.4,0-.4,0-.9.2-1.3.3-.4,0-.9.2-1.3.3-.1,0-.2,0-.3,0-.4.1-.8.2-1.3.4-.1,0-.2,0-.3.1-.3.1-.6.2-.9.3-.2,0-.3.1-.5.2-.4.2-.8.3-1.1.5-.2,0-.3.1-.4.2-.3.1-.6.2-.8.4-.2,0-.3.1-.4.2-.4.2-.8.4-1.2.6,0,0-.2,0-.3.2-.4.2-.7.4-1.1.6,0,0,0,0-.1,0-1.6,1-3.1,2-4.6,3.2l-42.9,34.6-4-9.1c-.1-.3-.2-.5-.4-.8,0,0,0-.2-.2-.3-2.5-5-6.5-8.6-11.7-10.5,0,0,0,0,0,0-.4-.1-.7-.3-1.1-.4-.9-.3-1.9-.5-2.8-.7-5.2-1-10.8-.3-16.4,1.9-.2,0-.5.2-.7.3-.4.2-.8.4-1.2.5,0,0-.2,0-.2.1-.3.2-.7.3-1,.5,0,0-.1,0-.2.1-.3.2-.7.4-1,.5,0,0,0,0-.1,0-.4.2-.7.4-1.1.7,0,0,0,0,0,0-1.2.8-2.4,1.6-3.6,2.5l-.6.3-.6.6-46,37.2c0-.2,0-.3,0-.5,0-.1,0-.3,0-.4,0-.5,0-.9,0-1.3s0-1,0-1.5c0-.3,0-.6,0-1,0-.2,0-.4,0-.5,0-.4,0-.8-.2-1.1,0,0,0-.2,0-.3,0-.4-.1-.8-.2-1.2,0,0,0-.2,0-.2,0-.4-.2-.8-.3-1.1,0,0,0-.2,0-.3,0-.4-.2-.7-.3-1,0,0,0-.2,0-.3-.1-.3-.2-.7-.4-1,0,0,0-.2-.1-.3-.1-.3-.3-.6-.4-1,0,0,0-.2-.1-.3,0-.2-.1-.3-.2-.5-2.3-4.6-5.9-8-10.4-10,0,0-.2,0-.3-.1-.3-.1-.5-.2-.8-.3-.1,0-.2,0-.4-.1-.3-.1-.7-.2-1-.3-.2,0-.4-.1-.6-.2-.1,0-.3,0-.4-.1-.2,0-.5-.1-.7-.2,0,0-.2,0-.2,0-.9-.2-1.8-.3-2.7-.5,0,0-.1,0-.2,0-.9,0-1.8-.1-2.7-.1h-.3c-.3,0-.5,0-.8,0-.2,0-.4,0-.6,0-.2,0-.4,0-.7,0-.4,0-.8,0-1.2.1-.2,0-.3,0-.5,0-.3,0-.6,0-.9.1-.1,0-.3,0-.4,0-.4,0-.9.2-1.3.3l-83.8,19.3c-.4,0-.9.2-1.3.3-.1,0-.2,0-.3,0-.4.1-.8.2-1.3.4-.1,0-.2,0-.3.1-.3.1-.6.2-1,.3-.2,0-.3.1-.5.2-.4.2-.8.3-1.1.5-.2,0-.3.1-.4.2-.3.1-.6.3-.8.4-.1,0-.3.1-.4.2-.4.2-.8.4-1.2.6,0,0-.2,0-.3.2-.4.2-.7.4-1.1.6,0,0,0,0-.1,0-1.6,1-3.1,2-4.6,3.2l-55.6,44.9c-.1-.2-.2-.4-.4-.5-.2-.3-.5-.7-.8-1-.3-.4-.6-.8-.8-1.1-.2-.3-.5-.6-.7-.9-.2-.3-.4-.6-.7-.8-.2-.2-.4-.5-.7-.8-.4-.4-.8-.8-1.1-1.3-.2-.2-.5-.5-.7-.7-.2-.3-.5-.5-.8-.8s-.5-.5-.8-.8c-.3-.3-.6-.6-.9-.9-.3-.3-.7-.6-1.1-.9-.2-.2-.4-.3-.6-.5-.4-.3-.9-.7-1.3-1,0,0-.2-.2-.3-.2-.6-.4-1.2-.9-1.7-1.3,0,0-.2-.1-.3-.2-12.6-8.8-29.3-12.4-47.7-8.9-.2,0-.4,0-.6.1-.8.2-1.7.3-2.5.5-.8.2-1.5.4-2.2.5-.2,0-.4,0-.6.2-.6.2-1.2.3-1.8.5-.2,0-.3,0-.4.1-9.8,2.9-19.1,7.6-27.5,13.7-.1,0-.2.2-.3.2-.5.4-1.1.8-1.6,1.2-.2.2-.4.3-.6.4-.5.4-1,.8-1.5,1.2-.1,0-.2.2-.3.3l-77.5,62.6h0c-5.8,4.7-11,10-15.5,15.6l-9.3-40.2s0,0,0,0c0-.4-.2-.8-.3-1.2,0-.2-.1-.3-.2-.5,0-.2-.2-.5-.2-.7,0-.2-.2-.5-.3-.7,0-.1-.1-.3-.2-.4-.1-.3-.2-.6-.4-.9h0c-.1-.3-.3-.6-.4-.9-3.6-7.2-10.6-11.6-19.2-12-1.7,0-3.5,0-5.3.3,0,0-.1,0-.2,0-.3,0-.7,0-1,.2,0,0-.2,0-.3,0-.4,0-.8.2-1.2.2-.4,0-.8.2-1.2.3,0,0-.2,0-.3,0-.3,0-.6.2-1,.3,0,0-.1,0-.2,0-4.3,1.4-8.5,3.7-12.2,6.7l-77.3,62.4h-.1c-7.2,6-12.4,14.2-14.2,22.8l-48.9,234.8c-1.7,8.2-.3,15.8,4,21.5,4.3,5.7,10.9,8.8,18.7,8.7,5.3,0,10.7-1.6,15.8-4.5,1.9-1.1,3.7-2.3,5.4-3.7l51.5-41.7,2.3,9.8c1.7,7.4,6.3,13,13,15.7,4.8,2,10.4,2.3,16.1,1,2.1-.5,4.3-1.2,6.4-2.2,3-1.3,5.8-3.1,8.5-5.2l44-35.6c13.5,15.9,35.7,23.2,60.7,17.4,13-3,25.9-9.4,37.2-18.5l67.8-54.8v17.4c0,16.4,13.4,26.7,29.8,22.9l83.8-19.3c5.2-1.2,10.4-3.8,14.9-7.4l46.4-37.5v2.2c0,16.4,13.4,26.7,29.8,22.9,5.2-1.2,10.4-3.8,14.9-7.4l42.9-34.7,4,9.1c2.6,5.8,7.3,10.1,13.4,12,4.4,1.4,9.3,1.5,14.3.3,1.9-.4,3.8-1.1,5.6-1.8,3.2-1.4,6.3-3.2,9.2-5.5l54.3-43.9c12.7,20.2,37.2,30.2,65.3,23.7,13-3,25.9-9.4,37.1-18.5l77.4-62.6c.1-.1.3-.2.4-.3.5-.4.9-.8,1.4-1.2.2-.2.5-.4.7-.6.4-.3.8-.7,1.2-1.1.2-.2.4-.4.6-.6.6-.5,1.1-1,1.7-1.6.2-.2.4-.4.6-.5.4-.4.9-.8,1.3-1.2.2-.2.4-.3.5-.5,1.2-1.2,2.4-2.4,3.5-3.7,0,0,0,0,.1-.1.6-.7,1.2-1.4,1.8-2.1v32.6c0,16.4,13.4,26.7,29.8,22.9,5.1-1.2,10.2-3.7,14.7-7.2l77.6-62.8c3.5-2.8,6.5-6.2,8.9-9.9,0-.1.2-.3.2-.4.1-.2.3-.5.4-.7.3-.5.6-1,.8-1.4h0c.2-.3.3-.6.5-.9,0,0,0,0,0,0,1.7-3.4,2.9-6.9,3.5-10.6,0,0,0-.2,0-.2,0-.2,0-.5.1-.8,0-.2,0-.5,0-.7,0-.2,0-.4,0-.6,0-.4,0-.8,0-1.2,0-.1,0-.3,0-.4,0-.5,0-.9,0-1.3v-105.5l46.4-116.7c.6-1.5,1.1-3,1.5-4.5,1.7-6.5,1.3-12.9-1-18.4h0Z"/>
          <g>
            <g>
              <path class="cls-1" d="M2259.6,775.2c-1.4-2.8-3.2-5-5.4-6.7l-37.2-28.6c2.2,1.7,4.1,4,5.4,6.7l25,51.4,37.2,28.6-25-51.4Z"/>
              <path class="cls-1" d="M2351.9,745.9l-37.2-28.6c7.4,5.7,9.9,16.5,5.5,27.6l-46.8,117.5,37.2,28.6,46.8-117.5c4.4-11.1,1.9-22-5.5-27.6Z"/>
              <path class="cls-23" d="M2247.4,1000.9h0c-7.2,1.7-13.7.2-18.4-3.4l37.2,28.6c4.7,3.6,11.2,5,18.4,3.4h0l-37.2-28.6Z"/>
              <path class="cls-6" d="M2273.4,968.8h0c0,7.2-2.9,14.4-7.6,20.2-4.7,5.8-11.2,10.2-18.4,11.9l37.2,28.6c7.2-1.7,13.7-6.1,18.4-11.9s7.6-13,7.6-20.2l-37.2-28.6Z"/>
              <polygon class="cls-1" points="2273.4 862.5 2273.4 968.8 2310.6 997.4 2310.6 891.1 2273.4 862.5"/>
            </g>
            <path class="cls-23" d="M2354.5,742.7l-37.2-28.6c-.1,0-.2-.1-.3-.2-2.5-1.9-5.4-3.2-8.8-3.9-3.8-.8-7.8-.7-11.9.3-11.9,2.7-22.6,12.2-27.3,24.2l-12.3,30.8-37.1-28.5c0,0-.1,0-.2-.1-5.5-4.1-12.9-5.6-20.9-3.7-4.1,1-8.1,2.7-11.9,5.2-15.1,10.1-21.9,29.3-15.4,42.8l46.4,95.3v105.5c0,8,3.2,14.6,8.4,18.8,0,0,.2.2.3.3l37.2,28.6c5.6,4.3,13.1,5.7,21.1,3.9,8-1.8,15.4-6.7,21.1-13.6,5.6-6.9,8.7-15.1,8.7-23.1v-105.5l46.4-116.8c4.9-12.5,2.5-24.9-6.3-31.6h0ZM2251.5,771.8c.7.5,1.3,1.1,1.9,1.7l-6.1,15.2-15.6-32.2,19.8,15.2ZM2306.9,998.3c0,6-2.3,12.1-6.5,17.3s-9.8,8.8-15.8,10.2-11.6.3-15.8-2.9l-23.3-17.9c0,0,.1,0,.1,0,.6,0,1.1-.2,1.7-.3.5-.1,1-.2,1.5-.4,0,0,.1,0,.2,0,.4-.1.9-.3,1.3-.4h0c6.8-2.3,13.1-6.7,18-12.7,4.9-6,7.9-13,8.6-19.9,0,0,0,0,0,0,0-.4,0-.8,0-1.2,0-.1,0-.2,0-.4,0-.3,0-.7,0-1,0-.2,0-.3,0-.5v-97.3l29.8,22.9v104.8h0ZM2354,772.9l-44.6,112-31.5-24.3,45.7-115c.2-.6.4-1.1.6-1.7,0-.2.1-.5.2-.7.1-.3.2-.6.3-.9.1-.3.2-.7.3-1,0-.2,0-.4.1-.5.1-.4.2-.8.3-1.3,0,0,0,0,0,0,.6-2.8.8-5.5.6-8.1l23.2,17.8c6.6,5,8.4,14.3,4.7,23.7h0Z"/>
            <path class="cls-4" d="M2305.2,717.5c-5.6-1.2-11.8.3-17.1,3.6s-9.9,8.5-12.3,14.7l-28.4,71.5-28.4-58.4c-2.5-5.1-7-8.2-12.3-9-5.3-.8-11.4.5-17.1,4.3-5.6,3.8-9.8,9.3-11.9,15.1s-2.1,11.9.3,17l47,96.6v107.1c0,12.3,10,20,22.4,17.2,12.3-2.8,22.4-15.2,22.4-27.5v-107.1l47-118.3c2.5-6.2,2.4-12.3.3-17.2-2.1-4.8-6.2-8.4-11.9-9.6h0Z"/>
            <g>
              <path class="cls-2" d="M2241.8,858.8h0s0,0,.1,0c.2,0,.5,0,1,.1.2,0,.4,0,.6,0,.2,0,.4,0,.7,0,6.5.9,24,3.4,25.5,3.5h0l47-118.3c2.5-6.2,2.4-12.3.3-17.2-1.4-3.2-3.7-5.9-6.8-7.7l-19.6,16.3-48.9,123h0Z"/>
              <path class="cls-32" d="M2310.3,719.4c-1.5-.9-3.2-1.5-5.1-1.9-2.8-.6-5.7-.5-8.6,0h-.4c-2.8.8-5.5,1.9-8.1,3.5-2.9,1.8-5.5,4.1-7.7,6.8l10.2,7.9,19.6-16.3h0Z"/>
              <path class="cls-4" d="M2290.7,735.8l-10.2-7.9c-1.9,2.3-3.5,5-4.7,7.9l-8.5,21.3-19.9,50.2h0l-5.6,51.5,48.9-123h0Z"/>
              <path class="cls-2" d="M2244.2,859.1c-.2,0-.5,0-.7,0-.2,0-.4,0-.6,0-.4,0-.8-.1-1-.1,0,0-.1,0-.1,0h0v111.7l21.4,16.5c4-5,6.6-11.1,6.6-17.3v-107.1c-1.6,0-19-2.5-25.5-3.5h0Z"/>
              <path class="cls-21" d="M2230,992.9c4.1,4.1,10.4,5.9,17.4,4.3,6.2-1.4,11.8-5.2,15.8-10.2l-21.4-16.5-11.8,22.4h0Z"/>
              <path class="cls-4" d="M2241.8,858.8l-16.8,14.1v107.1c0,5.3,1.9,9.8,5,12.9l11.8-22.4v-111.7h0Z"/>
              <path class="cls-2" d="M2241.8,858.8l5.6-51.5-19.9-41-8.5-17.4c-1.2-2.5-3-4.5-5.1-6l-21,15.5,48.9,100.5Z"/>
              <path class="cls-4" d="M2192.9,758.3l-10.2-7.9c-2.2,2.7-3.9,5.7-5,8.8-2.1,5.8-2.1,11.9.3,17l47,96.6h0l16.8-14.1-48.9-100.5h0Z"/>
              <path class="cls-32" d="M2213.9,742.9c-2.1-1.5-4.6-2.5-7.3-3-2.6-.4-5.3-.3-8.1.3h-.4c-2.9.8-5.8,2.1-8.6,3.9-2.6,1.8-4.9,3.9-6.8,6.2l10.2,7.9,21-15.5h0Z"/>
            </g>
          </g>
          <g>
            <g>
              <path class="cls-23" d="M2102.4,816.2c-3.4-2.6-8-3.6-13.1-2.4l37.2,28.6c5.1-1.2,9.8-.2,13.1,2.4l-37.2-28.6Z"/>
              <path class="cls-7" d="M2089.2,813.8h0c-5.1,1.2-9.8,4.3-13.1,8.5-3.4,4.2-5.4,9.3-5.4,14.4l37.2,28.6c0-5.1,2.1-10.3,5.4-14.4,3.4-4.2,8-7.3,13.1-8.5l-37.2-28.6Z"/>
              <path class="cls-1" d="M2107.8,865.3h0l-37.2-28.6h0v136.9c0,5.1,2.1,9.3,5.4,11.9l37.2,28.6c-3.4-2.6-5.4-6.8-5.4-11.9v-136.9Z"/>
              <path class="cls-23" d="M2089.2,1040h0c-19.5,4.5-37.2.7-50-9.2l37.2,28.6c12.8,9.8,30.5,13.7,50,9.2h0l-37.2-28.6Z"/>
              <path class="cls-1" d="M2197.2,974.5c0-7.2-2.9-13-7.6-16.7l-37.2-28.6c4.7,3.6,7.6,9.5,7.6,16.7v7l37.2,28.6v-7Z"/>
              <path class="cls-8" d="M2160,952.9h0c0,19.5-7.9,39-20.8,54.8s-30.5,27.8-50,32.3l37.2,28.6c19.5-4.5,37.2-16.5,50-32.3s20.8-35.3,20.8-54.8l-37.2-28.6h0Z"/>
              <path class="cls-23" d="M2133.9,855.1h0c-7.2,1.7-13.8.2-18.5-3.4l37.2,28.6c4.7,3.6,11.3,5.1,18.5,3.4h0l-37.2-28.6h0Z"/>
              <path class="cls-17" d="M2160,823c0,7.2-2.9,14.4-7.6,20.2-4.7,5.8-11.2,10.2-18.4,11.9l37.2,28.6c7.2-1.7,13.7-6.1,18.4-11.9s7.6-13,7.6-20.2l-37.2-28.6h0Z"/>
              <path class="cls-1" d="M2197.2,844.6c0-19.5-7.9-35.4-20.8-45.2l-37.2-28.6c12.8,9.8,20.8,25.7,20.8,45.2v7l37.2,28.6v-7Z"/>
            </g>
            <path class="cls-23" d="M2113.9,855.8l36.1,27.8c5.6,4.3,13.1,5.7,21.1,3.9,8-1.8,15.4-6.7,21.1-13.6,5.6-6.9,8.7-15.1,8.7-23.1v-7c0-19.9-7.8-36.8-21.8-47.6l-37.2-28.6h0c-14.1-10.8-32.8-14.3-52.6-9.7-41.1,9.5-74.5,50.6-74.5,91.7v136.9c0,19.9,7.8,36.8,21.8,47.6h0l37.2,28.6c14.1,10.8,32.8,14.3,52.7,9.7,19.9-4.6,38.6-16.7,52.6-34,14.1-17.3,21.9-37.8,21.9-57.7v-7c0-8-3.1-14.7-8.7-19l-37.2-28.6h0c-5.6-4.3-13.1-5.7-21.1-3.9-8.9,2.1-16.9,7.8-22.4,15.3v-73c0-2.9.8-5.9,2.4-8.6h0ZM2132.2,859.2c.6,0,1.1-.2,1.7-.3q.4,0,0,0h0c.5-.1,1-.2,1.5-.4,0,0,.1,0,.2,0,.4-.1.9-.3,1.3-.4h0c6.8-2.3,13.1-6.7,18-12.7,4.9-6,7.9-13,8.6-20h0c0-.5,0-.9.1-1.3,0,0,0-.1,0-.2,0-.5,0-1,0-1.5v-7c0-.6,0-1.2,0-1.7,0-.2,0-.4,0-.5,0-.4,0-.8,0-1.2,0-.2,0-.4,0-.6,0-.4,0-.7,0-1.1,0-.2,0-.4,0-.7,0-.4,0-.7-.1-1.1,0-.2,0-.4,0-.6,0-.4,0-.8-.1-1.3,0-.1,0-.3,0-.4,0-.5-.1-1.1-.2-1.6,0-.1,0-.3,0-.4,0-.4-.1-.8-.2-1.2,0-.2,0-.4-.1-.6,0-.3-.1-.7-.2-1,0-.2,0-.4-.1-.6,0-.3-.1-.7-.2-1,0-.2,0-.4-.1-.6,0-.3-.2-.7-.3-1,0-.2,0-.3-.1-.5-.1-.5-.3-1-.4-1.5,0,0,0-.1,0-.2-.1-.5-.3-.9-.4-1.4,0-.2-.1-.3-.2-.5-.1-.3-.2-.6-.3-1,0-.2-.1-.4-.2-.6,0-.2-.1-.3-.2-.5l14.1,10.9h0c12.7,9.8,19.7,25,19.7,42.8v7c0,6-2.3,12.1-6.5,17.3s-9.8,8.8-15.8,10.2c-6,1.4-11.6.3-15.9-2.9l-23.2-17.9c0,0,.1,0,.2,0h0ZM2074.3,835.8c0-.3,0-.5,0-.8h0c0-.3,0-.5,0-.8,0,0,0,0,0,0,0-.2,0-.5,0-.7h0c.3-2.3,1.2-4.5,2.4-6.6,0,0,0,0,0-.1.1-.2.2-.4.3-.5.1-.2.2-.3.3-.5,0,0,0-.1.1-.2.3-.5.6-.9,1-1.3s.7-.8,1.1-1.2c0,0,.1-.1.2-.2.1-.1.2-.2.4-.4.2-.2.3-.3.5-.5,0,0,0,0,0,0,2-1.8,4.3-3.2,6.8-4h0c.5-.2,1-.3,1.5-.4,3.2-.7,6.2-.4,8.8.8.6.3,1.2.7,1.8,1.1,2.8,2.2,4.4,5.5,4.4,9.5v7c0,5.9,1.7,11.1,4.9,15.2-3.1,4.7-4.9,9.9-4.9,15v99.8c0,8.2-6.7,16.3-14.9,18.2-4,.9-7.7.2-10.5-1.9-.4-.3-.7-.6-1-.9-2.2-2.2-3.4-5.2-3.4-8.6v-136.9h0ZM2137.9,1014.3c.2-.2.4-.5.6-.7.2-.2.4-.5.7-.8,1.8-2.1,3.5-4.2,5.2-6.4.4-.5.7-.9,1-1.4,0,0,0-.1.1-.2,10.5-14.5,16.7-30.9,18-47.1h0c0-.6,0-1.2.1-1.8,0,0,0-.2,0-.3v-1.5c0-.1,0-.3,0-.4,0-.6,0-1.3,0-1.9v-7c0-.6,0-1.1,0-1.7v-.2l23.3,17.9c4.2,3.2,6.5,8.3,6.5,14.3v7c0,17.9-7,36.3-19.7,51.9-12.7,15.6-29.5,26.5-47.4,30.6-17.9,4.1-34.7,1-47.4-8.7l-14.2-10.9c.2,0,.4,0,.6,0,.2,0,.4,0,.6,0,.4,0,.8,0,1.1,0,.2,0,.3,0,.5,0,.5,0,1.1,0,1.6,0h0c.5,0,1.1,0,1.6,0h2.3c.4,0,.7,0,1.1,0,.2,0,.4,0,.6,0,.4,0,.8,0,1.1,0,.2,0,.4,0,.6,0,.5,0,.9,0,1.4,0,.1,0,.2,0,.3,0,.6,0,1.1,0,1.7-.2.1,0,.2,0,.3,0,.5,0,.9-.1,1.4-.2.2,0,.4,0,.5,0,.4,0,.8-.1,1.2-.2s.4,0,.6,0c.4,0,.8-.1,1.2-.2.2,0,.4,0,.6,0,.4,0,.9-.2,1.3-.2.1,0,.3,0,.4,0,.6-.1,1.2-.2,1.8-.4.6-.2,1.3-.3,1.9-.5h0c.6-.2,1.3-.3,1.9-.5,0,0,0,0,0,0,16.6-4.7,32.2-14.6,44.8-28.4h0Z"/>
            <path class="cls-4" d="M2089.2,765.3c-37,8.5-67,45.5-67,82.5v136.9c0,37,30.1,60.1,67,51.6,37-8.5,67-45.5,67-82.5v-7c0-12.3-10-20-22.4-17.2s-22.4,15.2-22.4,27.5v7c0,12.3-10,24.7-22.4,27.5-12.3,2.8-22.4-4.9-22.4-17.2v-136.9c0-12.3,10-24.7,22.4-27.5,12.3-2.8,22.4,4.9,22.4,17.2v7c0,12.3,10,20,22.4,17.2s22.4-15.2,22.4-27.5v-7c0-37-30.1-60.1-67-51.6Z"/>
            <g>
              <path class="cls-2" d="M2128.3,954.6c0,12.3-5,24.7-13.1,34.6l21.4,16.4c12.1-14.9,19.7-33.4,19.7-51.9v-7c0-7-3.2-12.5-8.3-15.5l-19.6,16.3v7Z"/>
              <path class="cls-2" d="M2136.6,774l-21.4,15.1c8.1,6.2,13.1,16.2,13.1,28.6v7l21.4,16.5c4-5,6.6-11.1,6.6-17.3v-7c0-18.5-7.5-33.5-19.7-42.8h0Z"/>
              <path class="cls-32" d="M2148,931.3c-3.8-2.2-8.7-3-14.1-1.7-6.2,1.4-11.8,5.2-15.8,10.2l10.2,7.9,19.6-16.3h0Z"/>
              <path class="cls-21" d="M2116.5,847.1c4.1,4.1,10.4,5.9,17.4,4.3,6.2-1.4,11.8-5.2,15.8-10.2l-21.4-16.5-11.8,22.4h0Z"/>
              <path class="cls-32" d="M2083.6,783.4c12.3-2.8,23.5-.4,31.6,5.8l21.4-15.1c-12.1-9.3-28.9-13-47.4-8.7s-35.2,15.7-47.4,30.6l10.2,7.8c8.1-10,19.3-17.5,31.6-20.4h0Z"/>
              <path class="cls-21" d="M2083.6,1009.6c-12.3,2.8-23.5.4-31.6-5.8l-10.2,23.7c12.1,9.3,28.9,13,47.4,8.7s35.2-15.7,47.4-30.6l-21.4-16.4c-8.1,10-19.3,17.5-31.6,20.4h0Z"/>
              <path class="cls-4" d="M2128.3,954.6v-7l-10.2-7.9c-4,5-6.6,11.1-6.6,17.3v7c0,6.2-2.5,12.3-6.6,17.3l10.2,7.9c8.1-10,13.1-22.3,13.1-34.6h0Z"/>
              <path class="cls-4" d="M2128.3,817.7c0-12.3-5-22.4-13.1-28.6l-10.2,23.8c4.1,3.1,6.6,8.1,6.6,14.3v7c0,5.3,1.9,9.8,5,12.9l11.8-22.4v-7h0Z"/>
              <path class="cls-21" d="M2083.6,783.4c-12.3,2.8-23.5,10.4-31.6,20.4l21.4,16.5c4.1-5,9.6-8.8,15.8-10.2,6.2-1.4,11.8-.2,15.8,2.9l10.2-23.8c-8.1-6.2-19.3-8.6-31.6-5.8h0Z"/>
              <path class="cls-32" d="M2083.6,1009.6c12.3-2.8,23.5-10.4,31.6-20.4l-10.2-7.9c-4.1,5-9.6,8.8-15.8,10.2-6.2,1.4-11.8.2-15.8-2.9l-21.4,15.2c8.1,6.2,19.3,8.6,31.6,5.8h0Z"/>
              <path class="cls-2" d="M2038.9,838.4v136.9c0,12.3,5,22.4,13.1,28.6l21.4-15.2c-4.1-3.1-6.6-8.1-6.6-14.3v-136.9c0-6.2,2.5-12.3,6.6-17.3l-21.4-16.5c-8.1,10-13.1,22.3-13.1,34.6Z"/>
              <path class="cls-4" d="M2038.9,975.3v-136.9c0-12.3,5-24.7,13.1-34.6l-10.2-7.8c-12.1,14.9-19.7,33.4-19.7,51.9v136.9c0,18.5,7.5,33.5,19.7,42.8l10.2-23.7c-8.1-6.2-13.1-16.2-13.1-28.6h0Z"/>
            </g>
          </g>
          <g>
            <g>
              <path class="cls-1" d="M1926.7,852c-1.3-3-3.3-5.5-5.8-7.4l-37.2-28.6c2.4,1.9,4.4,4.4,5.8,7.4l39.1,88.8,37.2,28.6-39.1-88.8Z"/>
              <polygon class="cls-1" points="1928.6 996.7 1891.4 968.1 1891.4 1056.2 1928.6 1084.8 1928.6 996.7"/>
              <path class="cls-23" d="M1954.7,1067.6h0c-7,1.6-13.6.3-18.4-3.4l37.2,28.6c4.8,3.7,11.5,5,18.4,3.4h0l-37.2-28.6Z"/>
              <path class="cls-13" d="M1980.8,1035.6h0c0,7.1-2.9,14.3-7.6,20.2-3.6,4.4-8.2,8.1-13.5,10.3-1.7.7-3.3,1.2-4.9,1.6l37.2,28.6c1.6-.4,3.2-.9,4.9-1.6,5.3-2.3,9.9-5.9,13.5-10.3,4.8-5.8,7.6-13.1,7.6-20.2l-37.2-28.6Z"/>
              <path class="cls-1" d="M2010.3,824l-37.2-28.6c4.7,3.6,7.6,9.5,7.6,16.7v223.5l37.2,28.6v-223.5c0-7.2-2.9-13-7.6-16.7h0Z"/>
              <path class="cls-23" d="M1865.3,1088.3c-7.2,1.7-13.8.2-18.5-3.4l37.2,28.6c4.7,3.6,11.3,5.1,18.5,3.4l-37.2-28.6h0Z"/>
              <path class="cls-11" d="M1891.4,1056.2h0c0,7.2-2.9,14.4-7.6,20.2-4.7,5.8-11.2,10.2-18.4,11.9l37.2,28.6c7.2-1.7,13.7-6.1,18.4-11.9,4.7-5.8,7.6-13,7.6-20.2l-37.2-28.6Z"/>
            </g>
            <path class="cls-23" d="M2013,820.7l-37.2-28.6h0c-.1,0-.2-.2-.3-.2-5.4-4-12.7-5.5-20.7-3.6-16.4,3.8-29.8,20.2-29.8,36.7v17.6c-.4-.4-.9-.8-1.3-1.1l-36.4-28c-5.5-4.7-13.3-6.4-21.8-4.5h0c-1.9.4-3.8,1-5.7,1.8-14,6-24.2,20.7-24.2,34.8v223.5c0,7.9,3.1,14.7,8.7,19,0,0,0,0,0,0l37.2,28.6c5.6,4.3,13.1,5.7,21.1,3.9,8-1.8,15.4-6.7,21.1-13.6,5.6-6.9,8.7-15.1,8.7-23.1v-17.5c.7.6,1.4,1.2,2.2,1.7l36.3,27.9c5.6,4.3,13.2,5.7,21.1,3.9,1.9-.4,3.8-1.1,5.6-1.8,5.9-2.5,11.2-6.6,15.4-11.8,5.6-6.9,8.7-15.1,8.7-23.1v-223.5c0-8-3.1-14.7-8.7-19h0ZM1924.9,1085.7c0,6-2.3,12.1-6.5,17.3-4.2,5.2-9.8,8.8-15.8,10.2-6,1.4-11.6.3-15.8-2.9l-23.2-17.9c0,0,.1,0,.2,0,.6,0,1.2-.2,1.7-.3h0c.5-.1,1-.2,1.5-.4,0,0,.1,0,.2,0,.4-.1.9-.3,1.3-.4h0c6.8-2.3,13.1-6.7,18-12.7s7.9-13,8.6-20h0c0-.4,0-.9,0-1.3,0,0,0-.1,0-.2,0-.5,0-1,0-1.5v-68.8l29.8,67.5v31.6h0ZM1924.9,893.7l-2.5-5.6-24.7-56,20.6,15.8c2.1,1.7,3.8,3.8,4.9,6.3l1.7,3.7v35.7ZM2014.2,1065c0,5.9-2.3,12.1-6.6,17.3-3.2,3.9-7.2,7-11.6,8.8-1.3.6-2.7,1-4.2,1.3-5.9,1.4-11.7.3-15.8-2.9l-23.2-17.9s0,0,0,0c.6,0,1.2-.2,1.8-.3.2,0,.3,0,.5-.1.4,0,.8-.2,1.2-.3.2,0,.5-.1.7-.2.4-.1.7-.2,1.1-.3.2,0,.4-.1.6-.2.5-.2,1.1-.4,1.6-.6h0c.4-.2.8-.4,1.2-.6.1,0,.2,0,.3-.2.3-.2.6-.3.9-.4,0,0,.2-.1.3-.2.3-.2.7-.3,1-.5,0,0,.1,0,.2,0,4.3-2.5,8.2-5.8,11.5-9.8,4.4-5.4,7.2-11.5,8.3-17.7h0c0-.5.1-.9.2-1.2,0-.1,0-.3,0-.4,0-.3,0-.6,0-.9v-.8c0-.2,0-.4.1-.6,0-.5,0-.9,0-1.4v-223.5c0-.6,0-1.1,0-1.7v-.2l23.3,17.9c4.2,3.2,6.5,8.3,6.5,14.3v223.5h0Z"/>
            <path class="cls-4" d="M1954.7,795.7c-12.3,2.8-22.3,15.2-22.3,27.5v107.4l-46.3-105c-2-4.5-5.6-7.6-10-9s-9.7-1.1-14.9,1.1c-5.3,2.2-9.8,6.1-13,10.7-3.2,4.6-5.1,10-5.1,15.4v223.5c0,12.3,10,20,22.3,17.2,12.3-2.8,22.3-15.2,22.3-27.5v-107.4l46.3,105c2,4.5,5.6,7.6,10,9,3.2,1,6.9,1.1,10.7.3,1.4-.3,2.8-.8,4.2-1.4,5.3-2.2,9.8-6.1,13-10.7s5.1-10.1,5.1-15.4v-223.5c0-12.3-10-20-22.3-17.2h0Z"/>
            <g>
              <path class="cls-2" d="M1968.8,797.5l-19.6,16.3v223.5l21.4,16.4c.5-.6,1-1.2,1.4-1.9,3.2-4.6,5.1-10.1,5.1-15.4v-223.5c0-7-3.2-12.5-8.3-15.5h0Z"/>
              <path class="cls-32" d="M1968.8,797.5c-3.8-2.2-8.7-3-14.1-1.7-6.2,1.4-11.8,5.2-15.8,10.2l10.2,7.9,19.6-16.3h0Z"/>
              <path class="cls-4" d="M1938.9,805.9c-4,5-6.6,11.1-6.6,17.3v107.4h0l16.8,106.6v-223.5l-10.2-7.9h0Z"/>
              <path class="cls-2" d="M1932.4,930.7l-46.3-105.1c-1.2-2.8-3.1-5-5.4-6.7l-20.9,15.5,89.4,202.8-16.8-106.6h0Z"/>
              <path class="cls-4" d="M1859.7,834.4l27.9,115.2,46.3,105.1c1.1,2.4,2.6,4.4,4.5,6l10.7-23.4-89.4-202.8h0Z"/>
              <path class="cls-21" d="M1938.4,1060.6c1.6,1.3,3.5,2.3,5.5,3,3.2,1,6.9,1.1,10.6.3h.2c1.4-.4,2.8-.8,4.1-1.4,4.5-1.9,8.5-5,11.6-8.8l-21.4-16.4-10.7,23.4h0Z"/>
              <path class="cls-2" d="M1881.1,1074.3c4-5,6.6-11.1,6.6-17.3v-107.4h0l-27.9-115.2v223.5l21.4,16.4h0Z"/>
              <path class="cls-21" d="M1847.9,1080.3c4.1,4.1,10.3,5.9,17.4,4.3,6.2-1.4,11.8-5.2,15.8-10.2l-21.4-16.4-11.8,22.4h0Z"/>
              <path class="cls-32" d="M1876,816.6c-3.3-1-7.1-1.2-10.9-.2h-.1c-1.3.4-2.6.8-3.9,1.3-4.5,1.9-8.5,5-11.6,8.8l10.2,7.8,20.9-15.5c-1.4-1-2.9-1.8-4.6-2.3h0Z"/>
              <path class="cls-4" d="M1848.1,828.5c-3.2,4.6-5.1,10-5.1,15.4v223.5c0,5.3,1.9,9.8,5,12.9l11.8-22.4v-223.5l-10.2-7.8c-.5.6-1,1.2-1.4,1.9h0Z"/>
            </g>
          </g>
          <g>
            <g>
              <polygon class="cls-1" points="1716.5 898 1753.7 926.6 1753.7 986.2 1716.5 957.6 1716.5 898"/>
              <polygon class="cls-1" points="1716.5 1009.7 1753.7 1038.4 1753.7 1097.9 1716.5 1069.3 1716.5 1009.7"/>
              <path class="cls-23" d="M1774.2,1108.1h0l-83.8,19.3c-7.2,1.7-13.7.2-18.4-3.4l37.2,28.6c4.7,3.6,11.2,5,18.4,3.4l83.8-19.3h0l-37.2-28.6Z"/>
              <path class="cls-10" d="M1800.3,1076.1h0c0,7.2-2.9,14.4-7.6,20.2-4.7,5.8-11.2,10.2-18.4,11.9l37.2,28.6c7.2-1.7,13.7-6.1,18.4-11.9,4.7-5.8,7.6-13,7.6-20.2l-37.2-28.6Z"/>
              <path class="cls-1" d="M1829.8,1087.9l-37.2-28.6c4.7,3.6,7.7,9.5,7.7,16.7l37.2,28.6c0-7.2-2.9-13.1-7.7-16.7Z"/>
              <polygon class="cls-23" points="1757.5 1000.3 1716.5 1009.7 1753.7 1038.4 1794.7 1028.9 1757.5 1000.3 1757.5 1000.3"/>
              <path class="cls-16" d="M1783.5,968.1c0,7.2-2.9,14.4-7.6,20.2-4.7,5.8-11.2,10.2-18.4,11.9l37.2,28.6c7.2-1.7,13.7-6.1,18.4-11.9,4.7-5.8,7.6-13,7.6-20.2l-37.2-28.6Z"/>
              <path class="cls-1" d="M1820.7,996.8c0-7.2-2.9-13-7.6-16.7l-37.2-28.6c4.7,3.6,7.6,9.5,7.6,16.7l37.2,28.6h0Z"/>
              <path class="cls-1" d="M1829.9,864.5l-37.2-28.6c4.7,3.6,7.6,9.5,7.6,16.7l37.2,28.6c0-7.2-2.9-13-7.6-16.7Z"/>
              <polygon class="cls-23" points="1774.2 884.7 1716.5 898 1753.7 926.6 1811.4 913.3 1774.2 884.7 1774.2 884.7"/>
              <path class="cls-12" d="M1800.3,852.6h0c0,7.2-2.9,14.4-7.6,20.2-4.7,5.8-11.2,10.2-18.4,11.9l37.2,28.6c7.2-1.7,13.7-6.1,18.4-11.9,4.7-5.8,7.6-13,7.6-20.2l-37.2-28.6Z"/>
            </g>
            <path class="cls-23" d="M1795.3,1056.1s0,0,0,0c0,0-.2-.1-.2-.2-5.4-4-12.7-5.6-20.8-3.7l-16.8,3.9v-14.9l37.3-8.6c8-1.8,15.4-6.7,21.1-13.6,5.6-6.9,8.7-15.1,8.7-23.1s-3.1-14.7-8.7-19l-37.2-28.6c-5.6-4.3-13.1-5.7-21.1-3.9h0s0-14.9,0-14.9l54.1-12.5c8-1.8,15.4-6.7,21.1-13.6,5.6-6.9,8.7-15.1,8.7-23.1s-3.1-14.7-8.7-19l-37.2-28.6h0c-5.6-4.3-13.1-5.7-21.1-3.9l-83.8,19.3c-16.4,3.8-29.8,20.2-29.8,36.7v223.5c0,8,3.1,14.7,8.7,19h0l37.2,28.6c5.6,4.3,13.1,5.7,21.1,3.9l83.8-19.3c8-1.8,15.4-6.7,21.1-13.6,5.6-6.9,8.7-15.1,8.7-23.1s-3.1-14.8-8.8-19.1l-37.2-28.6h0ZM1757.5,1004c8-1.8,15.4-6.7,21.1-13.6,5.2-6.4,8.3-14,8.7-21.4,0,0,0-.1,0-.2,0-.5,0-1,0-1.5h0c0-.6,0-1.1,0-1.7v-.2l23.3,17.9h0c4.2,3.2,6.5,8.3,6.5,14.3s-2.3,12.2-6.5,17.4c-4.2,5.2-9.8,8.8-15.8,10.2l-39.5,9.1-9.9-7.6-19.8-15.2,32-7.4h0ZM1774.2,888.4h0c.5-.1,1-.2,1.5-.4,0,0,.2,0,.2,0,.4-.1.9-.2,1.3-.4,0,0,0,0,0,0,6.8-2.3,13.1-6.7,17.9-12.7,4.9-6,7.8-13,8.5-19.9,0,0,0,0,0-.2,0-.4,0-.8,0-1.3,0,0,0-.2,0-.3,0-.5,0-1,0-1.5h0c0-.6,0-1.1,0-1.7v-.2l23.3,17.9h0c4.2,3.2,6.5,8.3,6.5,14.3s-2.3,12.1-6.5,17.3c-4.2,5.2-9.8,8.8-15.8,10.2l-56.2,13-18.9-14.5-10.9-8.4,48.8-11.3h0ZM1720.2,906.2l29.8,22.9v17.1l-29.8,6.9v-46.8ZM1720.2,1017.9l16.4,12.6,13.3,10.3v17.1l-29.8,6.9v-46.8h0ZM1827.2,1122.8c-4.2,5.2-9.8,8.8-15.8,10.2l-83.8,19.3c-6,1.4-11.6.3-15.8-2.9l-23.3-17.9c0,0,.1,0,.2,0,.6,0,1.1-.2,1.7-.3l83.8-19.3h0c.5-.1,1-.2,1.5-.4,0,0,.1,0,.2,0,7.3-2.1,14.1-6.7,19.4-13.1,5.2-6.4,8.2-13.9,8.7-21.3,0,0,0-.1,0-.2,0-.5,0-1,0-1.5s0-1.2,0-1.7v-.2l23.2,17.9h0c4.2,3.3,6.6,8.3,6.6,14.3s-2.3,12.1-6.5,17.3h0Z"/>
            <path class="cls-4" d="M1774.2,880.9c12.3-2.8,22.3-15.2,22.3-27.5s-10-20-22.3-17.2l-83.8,19.3c-12.3,2.8-22.3,15.2-22.3,27.5v223.5c0,12.3,10,20,22.3,17.2l83.8-19.3c12.3-2.8,22.3-15.2,22.3-27.5s-10-20-22.3-17.2l-61.4,14.2v-67l44.7-10.3c12.3-2.8,22.3-15.2,22.3-27.5s-10-20-22.3-17.2l-44.7,10.3v-67l61.4-14.2h0Z"/>
            <g>
              <path class="cls-2" d="M1790,1094.2c4-5,6.6-11.1,6.6-17.3s-3.2-12.5-8.3-15.5l-19.6,16.3,21.4,16.4h0Z"/>
              <path class="cls-2" d="M1788.3,838l-19.6,16.3,21.4,16.5c4-5,6.6-11.1,6.6-17.3s-3.2-12.5-8.3-15.5h0Z"/>
              <path class="cls-32" d="M1768.6,854.3l19.6-16.3c-3.8-2.2-8.7-3-14.1-1.7l-83.8,19.3c-6.2,1.4-11.8,5.2-15.8,10.2l10.2,7.9,83.8-19.3h0Z"/>
              <path class="cls-32" d="M1768.6,1077.8l19.6-16.3c-3.8-2.2-8.7-3-14.1-1.7l-61.4,14.2-27.9,23.2,83.8-19.3h0Z"/>
              <path class="cls-21" d="M1684.8,873.6l27.9,21.5,61.4-14.2c6.2-1.4,11.8-5.2,15.8-10.2l-21.4-16.5-83.8,19.3h0Z"/>
              <path class="cls-21" d="M1684.8,1097.1l-11.8,22.4c4.1,4.1,10.4,5.9,17.4,4.3l83.8-19.3c6.2-1.4,11.8-5.2,15.8-10.2l-21.4-16.4-83.8,19.3h0Z"/>
              <path class="cls-2" d="M1773.3,986.4c4-5,6.6-11.1,6.6-17.3s-3.2-12.5-8.3-15.5l-19.6,16.3,21.4,16.5h0Z"/>
              <path class="cls-32" d="M1751.9,969.9l19.6-16.3c-3.8-2.2-8.7-3-14.1-1.7l-44.7,10.3-27.9,23.2,67-15.5h0Z"/>
              <path class="cls-21" d="M1684.8,985.4l27.9,21.5,44.7-10.3c6.2-1.4,11.8-5.2,15.8-10.2l-21.4-16.5-67,15.5h0Z"/>
              <polygon class="cls-2" points="1684.8 1097.1 1712.8 1073.9 1712.8 1006.9 1684.8 985.4 1684.8 1097.1"/>
              <polygon class="cls-2" points="1684.8 985.4 1712.8 962.2 1712.8 895.1 1684.8 873.6 1684.8 985.4"/>
              <path class="cls-4" d="M1684.8,985.4v-111.7l-10.2-7.9c-4,5-6.6,11.1-6.6,17.3v223.5c0,5.3,1.9,9.8,5,12.9l11.8-22.4v-111.7h0Z"/>
            </g>
          </g>
          <g>
            <g>
              <path class="cls-1" d="M1574.3,985.8l-37.2-28.6h0v136.9c0,5.1,2.1,9.3,5.4,11.9l37.2,28.6c-3.4-2.6-5.4-6.8-5.4-11.9v-136.9Z"/>
              <path class="cls-23" d="M1592.9,962.9c5.1-1.2,9.8-.2,13.2,2.4l-37.2-28.6c-3.4-2.6-8-3.6-13.2-2.4l37.2,28.6h0Z"/>
              <path class="cls-1" d="M1663.7,965.1c0-19.5-7.9-35.4-20.7-45.2l-37.2-28.6c12.8,9.8,20.7,25.7,20.7,45.2v7l37.2,28.6v-7Z"/>
              <path class="cls-19" d="M1626.5,943.5h0c0,7.2-2.9,14.4-7.6,20.2-4.7,5.8-11.2,10.2-18.4,11.9l37.2,28.6c7.2-1.7,13.7-6.1,18.4-11.9,4.7-5.8,7.6-13,7.6-20.2l-37.2-28.6h0Z"/>
              <path class="cls-23" d="M1600.4,975.6c-7.2,1.7-13.8.2-18.5-3.4l37.2,28.6c4.7,3.6,11.3,5.1,18.5,3.4l-37.2-28.6h0Z"/>
              <path class="cls-15" d="M1555.7,934.3c-5.1,1.2-9.8,4.3-13.1,8.5-3.4,4.2-5.4,9.3-5.4,14.4l37.2,28.6c0-5.1,2.1-10.3,5.4-14.4,3.4-4.2,8-7.3,13.1-8.5l-37.2-28.6Z"/>
              <path class="cls-23" d="M1574.3,1042.8c-5.7.5-10.8-1-14.7-4l37.2,28.6c3.9,3,9,4.5,14.7,4l-37.2-28.6Z"/>
              <path class="cls-23" d="M1555.7,1160.5h0c-19.5,4.5-37.2.7-50-9.2l37.2,28.6c12.8,9.8,30.5,13.7,50,9.2h0l-37.2-28.6Z"/>
              <path class="cls-1" d="M1663.7,1033.5c0-7.2-2.9-13-7.6-16.7l-37.2-28.6c4.7,3.6,7.6,9.5,7.6,16.7v68.5l37.2,28.6v-68.5Z"/>
              <path class="cls-18" d="M1626.5,1073.4h0c0,19.5-7.9,39.1-20.7,54.8-12.8,15.8-30.5,27.8-50,32.3l37.2,28.6c19.5-4.5,37.2-16.5,50-32.3s20.7-35.3,20.7-54.8l-37.2-28.6Z"/>
            </g>
            <path class="cls-23" d="M1667.4,971.3v-7c0-19.9-7.8-36.8-21.8-47.6l-37.2-28.6c-14.1-10.8-32.8-14.3-52.7-9.7-41.1,9.5-74.5,50.6-74.5,91.7v136.9c0,19.9,7.8,36.8,21.8,47.6h0l37.2,28.6c14.1,10.8,32.8,14.3,52.7,9.7,19.9-4.6,38.6-16.7,52.7-34,14.1-17.3,21.8-37.8,21.8-57.7v-68.5c0-8-3.1-14.7-8.7-19l-12-9.2c4.5-2.5,8.6-5.9,12-10.1,5.6-6.9,8.7-15.1,8.7-23.1h0ZM1578,984.9c0-2.9.8-5.9,2.4-8.6l9.5,7.3-11.8,2.7h0v-1.4h0ZM1540.8,956.3c0-.2,0-.5,0-.8,0,0,0-.1,0-.2,0-.2,0-.4,0-.6,0,0,0,0,0-.1,0-.2,0-.4,0-.6,0,0,0,0,0,0,.3-2.3,1.2-4.5,2.4-6.5,0,0,0,0,0-.1l.3-.5c0-.2.2-.3.3-.5,0,0,0-.1.1-.2.3-.5.6-.9,1-1.3s.7-.8,1.1-1.2c0,0,.1-.1.2-.2.1-.1.2-.2.4-.4.2-.2.3-.3.5-.5,0,0,0,0,0,0,2-1.8,4.3-3.2,6.8-4h0c.5-.2,1-.3,1.5-.4s1-.2,1.5-.3h0c2.5-.3,4.8,0,6.8.9,0,0,0,0,0,0,.2,0,.3.2.5.2s.2.1.4.2c0,0,.1,0,.2.1.4.2.7.5,1.1.7h0c2.7,2.1,4.3,5.4,4.3,9.5v7c0,6,1.8,11.2,4.9,15.2-3.2,4.7-4.9,9.9-4.9,15v2.4c-12.8,6.3-22.3,20.1-22.3,34s2.6,13.6,7.3,17.9c.4.4.9.8,1.3,1.1,0,0,0,0,0,0l13.6,10.4v33.9c0,8.2-6.7,16.3-14.9,18.2-4,.9-7.7.2-10.5-1.9-.8-.6-1.4-1.3-2-2-1.4-1.8-2.2-4.2-2.3-6.7,0-.2,0-.5,0-.7v-136.9h0ZM1653.4,1020.1c4.2,3.2,6.5,8.3,6.5,14.3v68.5c0,17.9-7,36.3-19.7,51.9-12.7,15.6-29.5,26.5-47.4,30.6s-34.7,1-47.4-8.7l-14.2-10.9c.2,0,.4,0,.6,0s.4,0,.6,0c.4,0,.8,0,1.2,0,.2,0,.3,0,.5,0,1.1,0,2.2.1,3.3.2h2.2c.4,0,.8,0,1.1,0,.2,0,.4,0,.6,0,.4,0,.8,0,1.2,0,.2,0,.3,0,.5,0,.5,0,1,0,1.4,0,0,0,.2,0,.2,0,.6,0,1.2,0,1.7-.2,0,0,.2,0,.3,0,.5,0,1-.1,1.4-.2.2,0,.3,0,.5,0,.4,0,.8-.1,1.2-.2.2,0,.4,0,.6,0,.4,0,.8-.1,1.2-.2.2,0,.4,0,.6,0,.4,0,.9-.2,1.3-.2.1,0,.3,0,.4,0,.6-.1,1.2-.2,1.8-.4,19.9-4.6,38.6-16.7,52.7-34,12.7-15.6,20.3-33.9,21.6-51.9h0c0-.6,0-1.2,0-1.7,0,0,0-.2,0-.3,0-.5,0-.9,0-1.4,0-.2,0-.4,0-.5,0-.4,0-.9,0-1.3v-64.4c2.4,0,4.8-.2,7.4-.8l15.8,12.2h0ZM1640.5,999.6l-19-14.6h0c-5.6-4.3-13.1-5.7-21-3.9l-1.9-1.5c0,0,.1,0,.2,0,.6,0,1.2-.2,1.7-.3h0c.5-.1,1-.2,1.5-.4,0,0,.2,0,.2,0,.4-.1.9-.3,1.3-.4h0c6.8-2.3,13.1-6.7,18-12.7,5.2-6.4,8.2-13.9,8.7-21.3,0,0,0-.1,0-.2,0-.5,0-1,0-1.5v-7c0-.6,0-1.2,0-1.7,0-.2,0-.4,0-.5,0-.4,0-.8,0-1.2,0-.2,0-.4,0-.6,0-.4,0-.7,0-1.1,0-.2,0-.4,0-.6,0-.4,0-.7,0-1.1,0-.2,0-.4,0-.6,0-.4,0-.8-.1-1.3,0-.1,0-.3,0-.4,0-.5-.2-1.1-.2-1.6,0-.1,0-.2,0-.4,0-.4-.1-.8-.2-1.3,0-.2,0-.4,0-.6,0-.3-.1-.7-.2-1,0-.2,0-.4-.1-.6,0-.3-.2-.7-.2-1,0-.2,0-.4-.1-.6,0-.4-.2-.7-.3-1.1,0-.2,0-.3-.1-.5-.1-.5-.3-1-.4-1.5h0c-.2-.5-.3-1.1-.5-1.6,0-.2,0-.3-.2-.5-.1-.3-.2-.7-.4-1,0-.2-.1-.4-.2-.5,0-.2-.1-.4-.2-.5l14.2,10.9c12.7,9.8,19.7,25,19.7,42.9v7c0,6-2.3,12.1-6.5,17.3-3.5,4.3-8.1,7.6-12.9,9.3h0Z"/>
            <path class="cls-4" d="M1555.7,885.8c-37,8.5-67,45.5-67,82.5v136.9c0,37,30.1,60.1,67,51.6,37-8.5,67-45.6,67-82.5v-68.4c0-12.3-10-20-22.3-17.2l-22.3,5.2c-12.3,2.8-22.3,15.2-22.3,27.5s10,20,22.3,17.2h0v46.1c0,12.3-10,24.7-22.3,27.5-12.3,2.8-22.3-4.9-22.3-17.2v-136.9c0-12.3,10-24.7,22.3-27.5,12.3-2.8,22.3,4.9,22.3,17.2v7c0,12.3,10,20,22.3,17.2s22.3-15.2,22.3-27.5v-7c0-37-30.1-60.1-67-51.6Z"/>
            <g>
              <path class="cls-2" d="M1594.8,1075.1c0,12.3-5,24.7-13.1,34.6l21.4,16.4c12.1-14.9,19.7-33.4,19.7-51.9v-68.4c0-7-3.2-12.5-8.3-15.5l-19.6,16.3v68.4Z"/>
              <path class="cls-2" d="M1603.1,894.5l-21.4,15.1c8.1,6.2,13.1,16.2,13.1,28.6v7l21.4,16.5c4-5,6.6-11.1,6.6-17.3v-7c0-18.5-7.5-33.5-19.7-42.8h0Z"/>
              <path class="cls-32" d="M1594.8,1006.7l19.6-16.3c-3.8-2.2-8.7-3-14.1-1.7l-22.3,5.2c-6.2,1.4-11.8,5.2-15.8,10.2l10.2,7.9,22.3-5.2h0Z"/>
              <path class="cls-21" d="M1583.1,967.6c4.1,4.1,10.3,5.9,17.4,4.3,6.2-1.4,11.8-5.2,15.8-10.2l-21.4-16.5-11.8,22.4Z"/>
              <path class="cls-32" d="M1550.1,903.9c12.3-2.8,23.5-.4,31.6,5.8l21.4-15.1c-12.1-9.3-28.9-13-47.4-8.7s-35.2,15.7-47.4,30.6l10.2,7.8c8.1-10,19.3-17.5,31.6-20.4h0Z"/>
              <path class="cls-21" d="M1550.1,1130.1c-12.3,2.8-23.5.4-31.6-5.8l-10.2,23.7c12.1,9.3,28.9,13,47.4,8.7s35.2-15.7,47.4-30.6l-21.4-16.4c-8.1,9.9-19.3,17.5-31.6,20.4h0Z"/>
              <path class="cls-4" d="M1594.8,1075.1v-68.4l-16.8,31.8v46.1c0,6.2-2.5,12.3-6.6,17.3l10.2,7.9c8.1-10,13.1-22.3,13.1-34.6h0Z"/>
              <path class="cls-4" d="M1594.8,938.2c0-12.3-5-22.4-13.1-28.6l-10.2,23.8c4.1,3.1,6.6,8.1,6.6,14.3v7c0,5.3,1.9,9.8,5,12.9l11.8-22.4v-7h0Z"/>
              <path class="cls-21" d="M1572.5,1011.8l-11.8,22.4c4.1,4.1,10.3,5.9,17.4,4.3l16.8-31.8-22.3,5.2h0Z"/>
              <path class="cls-21" d="M1550.1,903.9c-12.3,2.8-23.5,10.4-31.6,20.4l21.4,16.5c4.1-5,9.6-8.8,15.8-10.2s11.8-.2,15.8,2.9l10.2-23.8c-8.1-6.2-19.3-8.6-31.6-5.8h0Z"/>
              <path class="cls-32" d="M1550.1,1130.1c12.3-2.8,23.5-10.4,31.6-20.4l-10.2-7.9c-4.1,5-9.6,8.8-15.8,10.2-6.2,1.4-11.8.2-15.8-2.9l-21.4,15.2c8.1,6.2,19.3,8.6,31.6,5.8h0Z"/>
              <path class="cls-4" d="M1562.3,1004c-4,5-6.6,11.1-6.6,17.3s1.9,9.8,5,12.9l11.8-22.4-10.2-7.9h0Z"/>
              <path class="cls-2" d="M1505.4,958.9v136.9c0,12.3,5,22.4,13.1,28.6l21.4-15.2c-4.1-3.1-6.6-8.1-6.6-14.3v-136.9c0-6.2,2.5-12.3,6.6-17.3l-21.4-16.5c-8.1,10-13.1,22.3-13.1,34.6h0Z"/>
              <path class="cls-4" d="M1505.4,1095.8v-136.9c0-12.3,5-24.7,13.1-34.6l-10.2-7.8c-12.1,14.9-19.7,33.4-19.7,51.9v136.9c0,18.5,7.5,33.5,19.7,42.8l10.2-23.7c-8.1-6.2-13.1-16.2-13.1-28.6h0Z"/>
            </g>
          </g>
          <g>
            <g>
              <polygon class="cls-1" points="1387.3 1069.8 1424.5 1098.4 1417.2 1133.6 1380 1105 1387.3 1069.8"/>
              <polygon class="cls-23" points="1368.6 1159.8 1406 1151.1 1443.2 1179.7 1405.8 1188.4 1368.6 1159.8"/>
              <path class="cls-23" d="M1332.8,1209.4c-5.1,0-9.4-1.4-12.9-4.1l37.2,28.6c3.4,2.6,7.8,4.1,12.9,4.1,1.8,0,3.8-.3,5.6-.7l-37.2-28.6c-1.8.4-3.8.7-5.6.7h0Z"/>
              <polygon class="cls-1" points="1401.1 1210.9 1405.8 1188.4 1368.6 1159.8 1363.8 1182.3 1401.1 1210.9 1401.1 1210.9"/>
              <path class="cls-14" d="M1363.8,1182.3c-1.1,5.3-3.6,10.3-7,14.5-.7.9-1.4,1.7-2.2,2.5-4.5,4.6-10.2,8-16.2,9.4l37.2,28.6h0c6-1.4,11.7-4.8,16.2-9.4.8-.8,1.5-1.6,2.2-2.5,3.4-4.2,5.9-9.2,7-14.5l-37.2-28.6h0Z"/>
              <path class="cls-23" d="M1436.2,1186.1h0c-7,1.6-13.7.3-18.5-3.4l37.2,28.6c4.8,3.7,11.4,5,18.5,3.4h0l-37.2-28.6Z"/>
              <path class="cls-20" d="M1498.8,1177.1l-37.2-28.6c1.6,6.9,0,14.6-4,21.2-.4.8-.9,1.5-1.4,2.2-.5.7-1.1,1.4-1.6,2.2-3.4,4.2-7.8,7.8-12.8,10-1.9.8-3.8,1.4-5.6,1.9l37.2,28.6c1.8-.4,3.7-1,5.6-1.9,5.1-2.3,9.4-5.8,12.8-10,.6-.7,1.1-1.4,1.6-2.2.5-.7,1-1.5,1.4-2.2,3.9-6.6,5.6-14.3,4-21.2h0Z"/>
              <path class="cls-1" d="M1498.8,1177.1l-48.8-212.2c-1.1-4.8-3.6-8.6-7.1-11.2l-37.2-28.6c3.4,2.6,5.9,6.5,7.1,11.2l48.8,212.2,37.2,28.6h0Z"/>
            </g>
            <path class="cls-23" d="M1502.5,1175.5h0l-48.9-212.2c-1.2-5.3-4-9.7-8.1-12.8l-36.1-27.8c-5.5-4.8-13.4-6.7-22.1-4.7-14.1,3.3-26.1,15.7-29.1,30.2l-48.9,234.8c-2.2,10.6,1.1,19.9,7.8,25.3,0,.1.2.2.3.3h0s0,0,0,0l37.2,28.6c4,3.1,9.1,4.7,14.7,4.7,2.1,0,4.2-.3,6.4-.8,6.7-1.5,13.3-5.4,18.5-10.8.8-.9,1.7-1.8,2.5-2.8,4-5,6.8-10.7,8-16.6l4.1-19.4,10.3-2.4,33.2,25.5c5.6,4.3,13.3,5.7,21.1,3.9,2.1-.5,4.2-1.2,6.3-2.1,0,0,0,0,0,0,5.6-2.5,10.6-6.5,14.7-11.5.7-.8,1.3-1.7,1.8-2.5.6-.8,1.1-1.6,1.6-2.6,4.7-7.9,6.3-16.6,4.6-24.3h0ZM1386.7,1090.3l.6-3,2.7,11.7-5.4,1.2,2.1-9.9h0ZM1397.4,1210.9c-.9,4.4-3,8.7-6,12.4-.6.8-1.2,1.5-1.9,2.1-3.9,4-8.9,6.9-13.9,8.1-1.6.4-3.3.6-4.8.6-4.2,0-8-1.2-11-3.5l-23.3-17.9c0,0,.1,0,.2,0,.2,0,.4,0,.6-.1.3,0,.6-.1.8-.2,0,0,.2,0,.3,0,.2,0,.5-.1.8-.2,0,0,0,0,0,0,12.6-3.3,23.3-13.8,27.3-26.5,0-.1,0-.2,0-.3,0-.2.2-.5.2-.7,0-.2.1-.4.2-.6,0-.2,0-.3.1-.5,0-.4.2-.8.3-1.2l3.2-15.5,30.9,23.8-4.3,20.4h0ZM1407.3,1184.3l-29.8-22.9,25.5-5.9,4,17.6c.9,4,2.7,7.4,5.1,10.1l-4.9,1.1h0ZM1491.8,1197c-.4.7-.8,1.4-1.2,1.9-.4.6-.9,1.2-1.4,1.8-3,3.7-6.8,6.7-11,8.6-1.7.7-3.3,1.2-4.8,1.6-5.9,1.4-11.7.3-15.8-2.9l-23.2-17.9c.1,0,.2,0,.3,0,.2,0,.3,0,.4,0,.3,0,.6-.1.9-.2,0,0,.1,0,.2,0,0,0,0,0,0,0,.5-.1.9-.2,1.4-.4.2,0,.3,0,.5-.1.3,0,.5-.2.8-.2.5-.2,1-.3,1.4-.5,0,0,0,0,.2,0,.3-.1.6-.2.9-.4.4-.2.7-.3,1.1-.5,0,0,0,0,0,0,0,0,.2,0,.3-.1,7.6-3.4,14-9.4,18.3-17,2.9-5.2,4.6-10.8,4.8-16.1h0c0-.5,0-1,0-1.4v-.3c0-.4,0-.8,0-1.1,0-.1,0-.2,0-.4,0-.4,0-.7,0-1.1,0-.1,0-.3,0-.4,0-.4,0-.8-.2-1.1,0-.1,0-.2,0-.3,0-.5-.2-1-.3-1.4h0l-47.8-207.4,22.8,17.5c3,2.3,5.1,5.7,6.1,9.6l48.8,212.2c1.3,5.8,0,12.2-3.4,18.2h0Z"/>
            <path class="cls-4" d="M1409.1,938c-2.2-9.7-11.3-15-21.8-12.5-10.5,2.4-19.6,11.8-21.8,22.6l-48.9,234.8c-1.3,6.3,0,12,3,16.1s8,6.6,14,6.5c1.6,0,3.2-.2,4.8-.6,4.3-1,8.5-3.2,12-6.3,4.8-4.2,8.4-10,9.8-16.3l5.3-25.6,43.5-10,5.3,23.1c1.3,5.7,5,9.8,9.8,11.8,3.5,1.4,7.7,1.8,12,.8,1.6-.4,3.2-.9,4.8-1.6,6-2.7,10.9-7.5,14-13,3.1-5.5,4.3-11.8,3-17.5l-48.9-212.2h0ZM1375.3,1109.8l11.9-57.4,11.9,51.9-23.9,5.5h0Z"/>
            <g>
              <polygon class="cls-3" points="1375.3 1109.8 1399.2 1104.3 1399.2 1104.3 1387.3 1052.4 1375.3 1109.8 1375.3 1109.8"/>
              <path class="cls-2" d="M1421.4,1115.9h0l9.2,39.8,21.4,16.4c1.1-1.4,2.2-2.9,3-4.4,3.1-5.5,4.3-11.8,3-17.5l-48.9-212.2c-1.3-5.5-4.7-9.5-9.3-11.6l-18.1,17.1,39.7,172.4h0Z"/>
              <path class="cls-4" d="M1421.4,1115.9l-12.4,30.8h0l5.3,23.2c.9,3.7,2.7,6.6,5.1,8.8l11.1-23-9.2-39.8h0Z"/>
              <path class="cls-21" d="M1419.5,1178.7c1.4,1.2,2.9,2.2,4.6,2.9,3.5,1.4,7.6,1.8,11.9.8h.3c1.5-.4,3.1-1,4.6-1.6,4.3-1.9,8.1-5,11-8.6l-21.4-16.4-11.1,23h0Z"/>
              <polygon class="cls-4" points="1387.3 1052.4 1399.2 1104.3 1421.4 1115.9 1381.7 943.5 1387.3 1052.4"/>
              <polygon class="cls-21" points="1409 1146.7 1421.4 1115.9 1421.4 1115.9 1342 1134.3 1365.5 1156.8 1365.5 1156.8 1409 1146.7 1409 1146.7 1409 1146.7"/>
              <polygon class="cls-32" points="1399.2 1104.3 1399.2 1104.3 1375.3 1109.8 1375.3 1109.8 1342 1134.3 1342 1134.3 1421.4 1115.9 1399.2 1104.3"/>
              <polygon class="cls-2" points="1387.3 1052.4 1381.7 943.5 1342 1134.3 1375.3 1109.8 1387.3 1052.4"/>
              <path class="cls-32" d="M1399.8,926.4c-3.6-1.6-7.9-2-12.6-1-6.1,1.4-11.7,5.2-15.8,10.2l10.2,7.8,18.1-17.1h0Z"/>
              <path class="cls-2" d="M1332.8,1178.3l21.4,16.4c2.9-3.6,5.1-7.8,6-12.3l5.3-25.7-23.6-22.5-9.2,44h0Z"/>
              <path class="cls-4" d="M1342,1134.3h0l39.7-190.7-10.2-7.8c-2.9,3.6-5.1,7.9-6,12.4l-48.9,234.8c-1.3,6.3,0,12,3,16.1.4.6.9,1.1,1.4,1.7l11.8-22.4,9.2-44h0Z"/>
              <path class="cls-21" d="M1321,1200.6c3.1,3.1,7.4,4.9,12.6,4.9,1.6,0,3.1-.2,4.6-.6h.3c4.3-1.1,8.4-3.3,11.9-6.3,1.3-1.2,2.6-2.5,3.7-3.9l-21.4-16.4-11.8,22.4h0Z"/>
            </g>
          </g>
        </g>
      </g>
    </g>
  </g>
</svg>